<?xml version="1.0" encoding="utf-8"?>
<!-- Generator: Adobe Illustrator 21.0.2, SVG Export Plug-In . SVG Version: 6.00 Build 0)  -->
<svg version="1.1" id="Layer_1" xmlns="http://www.w3.org/2000/svg" xmlns:xlink="http://www.w3.org/1999/xlink" x="0px" y="0px"
	 viewBox="0 0 789 528" style="enable-background:new 0 0 789 528;" xml:space="preserve">
<style type="text/css">
	.st0{fill:#EDEDED;}
	.st1{fill:#E99723;}
	.st2{fill:#40A4E2;}
	.st5{fill:#AFAFAF;}
	.st6{fill:#474747;stroke:#474748;stroke-miterlimit:10;}
	.st8{fill:#474747;}
	.st10{fill:#FFFFFF;}
	.st11{font-family:'MyriadPro-Regular';}
	.st12{font-size:9px;}
	.st9s{enable-background:new    ;}
	.st3s{fill:#9BCBDD;}
	.st7{fill:#CECECE;}
</style>
<g id="building_1_">
	<polygon class="st0" points="9.7,30.3 788.5,32.3 761.7,95.9 740.9,95.9 740.9,102.6 744.1,102.6 744.1,108.2 713.2,180.4 
		713.2,185.2 726.6,185.2 725.3,472.6 9.7,475.1 	"/>
	<polygon id="building" class="st0" points="785.5,34.3 760.3,93.9 738.9,93.9 738.9,104.6 742.1,104.6 742.1,107.8 711.2,180 
		711.2,187.2 724.6,187.2 723.3,470.6 11.7,473.1 11.7,32.3 	"/>
</g>
<rect id="room_x5F_4104" x="63.2" y="315.3" class="st1" width="48.3" height="38"/>
<rect id="room_x5F_4205" x="63.2" y="162.2" class="st1" width="48.3" height="36.8"/>
<polygon id="room_x5F_4207" class="st2" points="195.3,122 167.2,122 160.7,122 114.5,122 114.5,202.3 167.2,202.3 167.2,174.7 
	195.3,174.7 "/>
<polygon id="room_x5F_4217" class="st2" points="198.3,122.1 226.5,122.1 233,122.1 279.2,122.1 279.2,202.4 226.5,202.4 
	226.5,174.7 198.3,174.7 "/>
<rect id="room_x5F_4225" x="327.4" y="177.5" class="st2" width="33.6" height="24.9"/>
<rect id="room_x5F_4210" x="168.9" y="177.5" class="st2" width="16.8" height="24.9"/>
<rect id="room_x5F_4211" x="188.7" y="177.5" class="st2" width="16.8" height="24.9"/>
<rect id="room_x5F_4212" x="208.7" y="177.5" class="st2" width="16.8" height="24.9"/>
<rect id="room_x5F_4227" x="364" y="177.5" class="st2" width="33.6" height="24.9"/>
<rect id="room_x5F_4236" x="569.4" y="219.9" class="st2" width="39.3" height="24.9"/>
<rect id="room_x5F_4235" x="527.1" y="219.9" class="st2" width="39.3" height="24.9"/>
<rect id="room_x5F_4234" x="485" y="219.9" class="st2" width="39.3" height="24.9"/>
<polygon id="room_x5F_4145" class="st2" points="629.3,297.5 609.6,297.5 601,297.5 561.4,297.5 533.2,297.5 533.2,313.1 
	561.4,313.1 561.4,324.1 609.6,324.1 609.6,313.1 629.3,313.1 "/>
<rect id="room_x5F_4224" x="321.8" y="219.9" class="st2" width="95.4" height="74.9"/>
<rect id="room_x5F_4222" x="282.5" y="219.9" class="st2" width="36.3" height="74.9"/>
<g id="room_x5F_4221">
	<polygon class="st2" points="333.7,122.1 327.4,122.1 282.5,122.1 282.5,202.4 324.6,202.4 324.6,174.7 333.7,174.7 361,174.7 
		361,122.1 	"/>
</g>
<g id="room_x5F_4229">
	<polygon class="st2" points="391.4,122.1 397.7,122.1 442.6,122.1 442.6,202.4 400.5,202.4 400.5,174.7 391.4,174.7 364,174.7 
		364,122.1 	"/>
</g>
<rect id="room_x5F_4206" x="114.5" y="221.1" class="st2" width="59" height="38.3"/>
<rect id="room_x5F_4103" x="114.5" y="262.3" class="st2" width="19.8" height="32.4"/>
<rect id="room_x5F_4105" x="137.1" y="262.3" class="st2" width="36.4" height="32.4"/>
<rect id="room_x5F_4215" x="176.5" y="221.1" class="st2" width="27" height="45.1"/>
<rect id="room_x5F_4107" x="176.5" y="269.1" class="st2" width="46.3" height="25.6"/>
<rect id="room_x5F_4109" x="225.8" y="269.1" class="st2" width="38" height="25.6"/>
<rect id="room_x5F_4216" x="206.5" y="221.1" class="st2" width="57.3" height="45.1"/>
<polygon id="room_x5F_4106" class="st2" points="169.3,311.5 114.5,311.5 114.5,395.3 169.3,395.3 169.3,348.8 193.3,348.8 
	193.3,311.5 "/>
<polygon id="room_x5F_4108" class="st2" points="221.3,351.7 221.3,311.5 196.3,311.5 196.3,351.7 172.8,351.7 172.8,395.3 
	196.3,395.3 221.3,395.3 237.2,395.3 237.2,351.7 "/>
<polygon id="room_x5F_4111" class="st2" points="253,311.5 244.8,311.5 243.7,311.5 224.4,311.5 224.4,348 244.8,348 244.8,338.8 
	253,338.8 "/>
<rect id="room_x5F_4116" x="270.2" y="351.7" class="st2" width="59.5" height="43.7"/>
<rect id="room_x5F_4124" x="332.7" y="351.7" class="st2" width="55.7" height="43.7"/>
<rect id="room_x5F_4130" x="391.3" y="351.7" class="st2" width="51.7" height="43.7"/>
<rect id="room_x5F_4123" x="328.7" y="296.8" class="st1" width="27.3" height="41.8"/>
<rect id="room_x5F_4125" x="359" y="296.8" class="st1" width="27.3" height="41.8"/>
<rect id="room_x5F_4129" x="389.3" y="296.8" class="st1" width="27.3" height="41.8"/>
<rect id="room_x5F_4140" x="503.7" y="366.1" class="st1" width="27.3" height="29.2"/>
<rect id="room_x5F_4142" x="533.2" y="366.1" class="st1" width="24.8" height="29.2"/>
<rect id="room_x5F_4144" x="560" y="366.1" class="st1" width="24.8" height="29.2"/>
<rect id="room_x5F_4146" x="586.8" y="366.1" class="st1" width="24.8" height="29.2"/>
<rect id="room_x5F_4148" x="613.7" y="366.1" class="st1" width="24.8" height="29.2"/>
<rect id="room_x5F_4150" x="640.5" y="366.1" class="st1" width="24.8" height="29.2"/>
<rect id="room_x5F_4152" x="667.3" y="366.1" class="st1" width="22.9" height="29.2"/>
<polygon id="room_x5F_4147" class="st1" points="558,327.4 558,316.1 533.2,316.1 533.2,351.7 558,351.7 594,351.7 594,327.4 "/>
<rect id="room_x5F_4151" x="611.7" y="273.5" class="st1" width="43.3" height="20.9"/>
<rect id="room_x5F_4153" x="611.7" y="246.7" class="st1" width="43.3" height="23.8"/>
<rect id="room_x5F_4155" x="611.7" y="219.9" class="st1" width="43.3" height="23.8"/>
<rect id="room_x5F_4158" x="667.8" y="278.9" class="st1" width="26.1" height="31.1"/>
<rect id="room_x5F_4159" x="695.7" y="278.9" class="st1" width="26.1" height="31.1"/>
<rect id="room_x5F_4160" x="667.8" y="245.7" class="st1" width="26.1" height="31.1"/>
<rect id="room_x5F_4161" x="695.7" y="245.7" class="st1" width="26.1" height="31.1"/>
<rect id="room_x5F_4162" x="667.8" y="202.9" class="st1" width="26.1" height="31.1"/>
<rect id="room_x5F_4163" x="695.7" y="202.9" class="st1" width="26.1" height="31.1"/>
<g>
	<rect x="681.8" y="329.1" class="st5" width="39.3" height="21.4"/>
	<g>
		<rect x="691.3" y="346.8" class="st6" width="5.4" height="1.1"/>
		
			<rect x="693.8" y="345.1" transform="matrix(6.123234e-17 -1 1 6.123234e-17 350.4914 1041.7677)" class="st6" width="4.6" height="1.1"/>
		<rect x="695.6" y="343.1" class="st6" width="5.4" height="1.1"/>
		
			<rect x="698.1" y="341.4" transform="matrix(6.123234e-17 -1 1 6.123234e-17 358.4352 1042.3165)" class="st6" width="4.6" height="1.1"/>
		<rect x="699.8" y="339.4" class="st6" width="5.4" height="1.1"/>
		
			<rect x="702.3" y="337.7" transform="matrix(6.123234e-17 -1 1 6.123234e-17 366.379 1042.8652)" class="st6" width="4.6" height="1.1"/>
		<rect x="704.1" y="335.7" class="st6" width="5.4" height="1.1"/>
		
			<rect x="706.6" y="334" transform="matrix(6.123234e-17 -1 1 6.123234e-17 374.3229 1043.4139)" class="st6" width="4.6" height="1.1"/>
		<rect x="708.3" y="332" class="st6" width="5.4" height="1.1"/>
	</g>
</g>
<g id="stairs">
	<rect x="449.5" y="333.5" class="st5" width="46.3" height="20.8"/>
	<g>
		<rect x="460.7" y="351.5" class="st6" width="6" height="1.3"/>
		
			<rect x="463.5" y="349.6" transform="matrix(6.123234e-17 -1 1 6.123234e-17 115.8379 816.3452)" class="st6" width="5.1" height="1.3"/>
		<rect x="465.5" y="347.4" class="st6" width="6" height="1.3"/>
		
			<rect x="468.3" y="345.5" transform="matrix(6.123234e-17 -1 1 6.123234e-17 124.7418 816.9602)" class="st6" width="5.1" height="1.3"/>
		<rect x="470.2" y="343.3" class="st6" width="6" height="1.3"/>
		
			<rect x="473" y="341.3" transform="matrix(6.123234e-17 -1 1 6.123234e-17 133.6456 817.5752)" class="st6" width="5.1" height="1.3"/>
		<rect x="475" y="339.1" class="st6" width="6" height="1.3"/>
		
			<rect x="477.8" y="337.2" transform="matrix(6.123234e-17 -1 1 6.123234e-17 142.5495 818.1902)" class="st6" width="5.1" height="1.3"/>
		<rect x="479.7" y="335" class="st6" width="6" height="1.3"/>
	</g>
</g>
<g id="stairs_2_">
	<rect x="447.5" y="166.3" class="st5" width="51.8" height="21.7"/>
	<g>
		<rect x="460.8" y="185.1" class="st6" width="6.3" height="1.3"/>
		
			<rect x="463.7" y="183.1" transform="matrix(6.123234e-17 -1 1 6.123234e-17 282.587 650.1656)" class="st6" width="5.4" height="1.3"/>
		<rect x="465.7" y="180.8" class="st6" width="6.3" height="1.3"/>
		
			<rect x="468.7" y="178.8" transform="matrix(6.123234e-17 -1 1 6.123234e-17 291.8591 650.8062)" class="st6" width="5.4" height="1.3"/>
		<rect x="470.7" y="176.5" class="st6" width="6.3" height="1.3"/>
		
			<rect x="473.6" y="174.5" transform="matrix(6.123234e-17 -1 1 6.123234e-17 301.1313 651.4466)" class="st6" width="5.4" height="1.3"/>
		<rect x="475.6" y="172.2" class="st6" width="6.3" height="1.3"/>
		
			<rect x="478.6" y="170.2" transform="matrix(6.123234e-17 -1 1 6.123234e-17 310.4035 652.0871)" class="st6" width="5.4" height="1.3"/>
		<rect x="480.6" y="167.9" class="st6" width="6.3" height="1.3"/>
	</g>
</g>
<g>
	<rect x="82" y="267.6" class="st5" width="16.5" height="46.5"/>
	<g>
		<path class="st8" d="M82.4,294.6v-3.8c0-3,2.4-5.4,5.4-5.4h5.1c3,0,5.4,2.4,5.4,5.4v3.8c0,3-2.4,5.4-5.4,5.4l-5.1,0
			C84.8,300,82.4,297.6,82.4,294.6z"/>
		<g>
			<g>
				<g>
					<path class="st5" d="M89.4,289.4c-0.6,0-1.1,0.5-1.1,1.1v2.6c0,0.5,0.7,0.5,0.7,0l0-2.4h0.2v6.6c0,0.7,1,0.7,1,0v-3.9h0.2
						l0,3.9c0,0.7,1,0.7,1,0v-6.6h0.2v2.4c0,0.5,0.7,0.5,0.7,0v-2.6c0-0.6-0.4-1.1-1.1-1.1L89.4,289.4z"/>
				</g>
				<g>
					<circle class="st5" cx="90.3" cy="288.3" r="0.8"/>
					<path class="st5" d="M90.3,288.3"/>
				</g>
			</g>
		</g>
	</g>
</g>
<g>
	<rect x="63.2" y="200.8" class="st5" width="17.1" height="46.9"/>
	<g>
		<rect x="64.4" y="228.8" class="st6" width="3.6" height="0.8"/>
		
			<rect x="65.9" y="227.6" transform="matrix(6.123234e-17 -1 1 6.123234e-17 -160.3657 295.5887)" class="st6" width="3.4" height="0.7"/>
		<rect x="67.2" y="226.1" class="st6" width="3.6" height="0.8"/>
		
			<rect x="68.7" y="224.9" transform="matrix(6.123234e-17 -1 1 6.123234e-17 -154.8177 295.6841)" class="st6" width="3.4" height="0.7"/>
		<rect x="70.1" y="223.4" class="st6" width="3.6" height="0.8"/>
		
			<rect x="71.6" y="222.2" transform="matrix(6.123234e-17 -1 1 6.123234e-17 -149.2697 295.7794)" class="st6" width="3.4" height="0.7"/>
		<rect x="72.9" y="220.6" class="st6" width="3.6" height="0.8"/>
		
			<rect x="74.4" y="219.4" transform="matrix(6.123234e-17 -1 1 6.123234e-17 -143.7218 295.8748)" class="st6" width="3.4" height="0.7"/>
		<rect x="75.7" y="217.9" class="st6" width="3.6" height="0.8"/>
	</g>
</g>
<g>
	<rect x="62.3" y="267.6" class="st5" width="17.1" height="46.5"/>
	<g>
		<g>
			<path class="st8" d="M69,294.1L69,294.1l0.1,2.3c0,0,0,0.3,0.3,0.3c0.3,0,0.3-0.2,0.3-0.2v-2.3h0.8l-0.9-2.8h0.1l0.5,1.7
				c0,0,0.1,0.2,0.3,0.1c0.2-0.1,0.1-0.3,0.1-0.3s-0.5-1.7-0.6-1.9c-0.1-0.2-0.3-0.5-0.6-0.5H69"/>
			<path class="st8" d="M69.7,289.7c0,0.3-0.3,0.6-0.6,0.6c-0.3,0-0.6-0.3-0.6-0.6c0-0.3,0.3-0.6,0.6-0.6
				C69.4,289.1,69.7,289.4,69.7,289.7"/>
			<path class="st8" d="M69.1,294.1L69.1,294.1l-0.1,2.3c0,0,0,0.3-0.3,0.3c-0.3,0-0.3-0.2-0.3-0.2v-2.3h-0.8l0.9-2.8h-0.1l-0.5,1.7
				c0,0-0.1,0.2-0.3,0.1c-0.2-0.1-0.1-0.3-0.1-0.3s0.5-1.7,0.6-1.9c0.1-0.2,0.3-0.5,0.6-0.5h0.5"/>
		</g>
		<g>
			<path class="st8" d="M72.7,290.5h0.8c0.4,0,0.7,0.5,0.7,0.6v2.1c0,0-0.1,0.2-0.3,0.2c-0.2,0-0.2-0.2-0.2-0.2v-1.8h-0.2v2.6l0,2.3
				c0,0,0,0.2-0.3,0.2c-0.3,0-0.4-0.3-0.4-0.3l0-2.9h-0.1"/>
			<path class="st8" d="M73.4,289.7c0,0.3-0.3,0.6-0.6,0.6c-0.3,0-0.6-0.3-0.6-0.6c0-0.3,0.3-0.6,0.6-0.6
				C73.1,289.1,73.4,289.4,73.4,289.7"/>
			<path class="st8" d="M73,290.5h-0.8c-0.4,0-0.7,0.5-0.7,0.6v2.1c0,0,0.1,0.2,0.3,0.2c0.2,0,0.2-0.2,0.2-0.2v-1.8h0.2v2.6l0,2.3
				c0,0,0,0.2,0.3,0.2c0.3,0,0.4-0.3,0.4-0.3l0-2.9h0.1"/>
		</g>
		<path class="st8" d="M64.2,298.5c-0.4,0-0.7-0.4-0.7-0.8l0,0l0-10c0-0.4,0.3-0.8,0.7-0.8l0,0h13.6c0.4,0,0.7,0.4,0.7,0.8l0,0v10h0
			c0,0.4-0.3,0.8-0.7,0.8l0,0L64.2,298.5L64.2,298.5z M77.8,297.6v-10H64.2v10H77.8L77.8,297.6z"/>
		<polyline class="st8" points="66.5,286.4 71,281.9 75.5,286.4 		"/>
		<polyline class="st8" points="75.5,298.9 71,303.4 66.5,298.9 		"/>
	</g>
</g>
<g>
	<rect x="81.9" y="200.8" class="st5" width="16.9" height="46.9"/>
	<path class="st8" d="M82,225.6v-3.3c0-3.3,2.7-6,6-6h4.6c3.3,0,6,2.7,6,6l0,3.3c0,3.3-2.7,6-6,6H88C84.7,231.5,82,228.9,82,225.6z"
		/>
	<g>
		<g>
			<g>
				<circle class="st5" cx="90.3" cy="219.4" r="0.9"/>
				<path class="st5" d="M90.3,219.4"/>
			</g>
			<g>
				<path class="st5" d="M90.2,225.9l0,3.1c0,0.6-0.8,0.6-0.8,0l0-3.1h-1.1l1.2-4.1h-0.2l-0.7,2.3c-0.2,0.5-0.9,0.3-0.7-0.2l0.8-2.5
					c0.1-0.3,0.4-0.8,1.1-0.8h0.6l0,0h0.6c0.6,0,1,0.5,1.1,0.8l0.8,2.5c0.2,0.5-0.5,0.8-0.7,0.2l-0.7-2.3h-0.2l1.2,4.1h-1.1v3.1
					c0,0.6-0.8,0.5-0.8,0v-3.1H90.2z"/>
			</g>
		</g>
	</g>
</g>
<text transform="matrix(1 0 0 1 80.2991 337.7707)" class="st10 st11 st12">4104</text>
<text transform="matrix(1 0 0 1 80.0302 183.7896)" class="st10 st11 st12">4205</text>
<text transform="matrix(1 0 0 1 146.3635 159.7896)" class="st10 st11 st12">4207</text>
<text transform="matrix(1 0 0 1 134.2502 242.7896)" class="st10 st11 st12">4206</text>
<text transform="matrix(1 0 0 1 181.0002 246.2896)" class="st10 st11 st12">4215</text>
<text transform="matrix(1 0 0 1 225.7502 246.2896)" class="st10 st11 st12">4216</text>
<text transform="matrix(1 0 0 1 291.2502 260.0396)" class="st10 st11 st12">4222</text>
<text transform="matrix(1 0 0 1 360.0394 260.0396)" class="st10 st11 st12">4224</text>
<text transform="matrix(1 0 0 1 291.2504 375.5001)" class="st10 st11 st12">4116</text>
<text transform="matrix(1 0 0 1 351.3332 375.1672)" class="st10 st11 st12">4124</text>
<text transform="matrix(1 0 0 1 408.3332 375.1674)" class="st10 st11 st12">4130</text>
<text transform="matrix(1 0 0 1 332.6665 319.5396)" class="st10 st11 st12">4123</text>
<text transform="matrix(1 0 0 1 363.25 319.5396)" class="st10 st11 st12">4125</text>
<text transform="matrix(1 0 0 1 393.6254 319.5396)" class="st10 st11 st12">4129</text>
<text transform="matrix(1 0 0 1 189.5316 284.1706)" class="st10 st11 st12">4107</text>
<text transform="matrix(1 0 0 1 235.1249 284.1707)" class="st10 st11 st12">4109</text>
<text transform="matrix(1 0 0 1 145.3634 280.9207)" class="st10 st11 st12">4207</text>
<text transform="matrix(1 0 0 1 115.6134 279.9205)" class="st10 st11 st12">4103</text>
<text transform="matrix(1 0 0 1 134.2503 353.4168)" class="st10 st11 st12">4106</text>
<text transform="matrix(1 0 0 1 195.3331 371.4168)" class="st10 st11 st12">4108</text>
<text transform="matrix(1 0 0 1 228.8331 330.0484)" class="st10 st11 st12">4111</text>
<text transform="matrix(1 0 0 1 171.2833 188.0396)" class="st9s"><tspan x="0" y="0" class="st10 st11 st12">42-</tspan><tspan x="0" y="10.8" class="st10 st11 st12">10</tspan></text>
<text transform="matrix(1 0 0 1 190.8335 187.5396)" class="st9s"><tspan x="0" y="0" class="st10 st11 st12">42-</tspan><tspan x="0" y="10.8" class="st10 st11 st12">11</tspan></text>
<text transform="matrix(1 0 0 1 211.0771 187.5396)" class="st9s"><tspan x="0" y="0" class="st10 st11 st12">42-</tspan><tspan x="0" y="10.8" class="st10 st11 st12">12</tspan></text>
<text transform="matrix(1 0 0 1 231.0302 159.7896)" class="st10 st11 st12">4217</text>
<text transform="matrix(1 0 0 1 313.2802 159.7896)" class="st10 st11 st12">4221</text>
<text transform="matrix(1 0 0 1 335.5302 192.0396)" class="st10 st11 st12">4225</text>
<text transform="matrix(1 0 0 1 372.6665 192.0396)" class="st10 st11 st12">4227</text>
<text transform="matrix(1 0 0 1 394.7802 160.0315)" class="st10 st11 st12">4229</text>
<g>
	<rect x="429.3" y="309.9" class="st5" width="56.5" height="21.9"/>
	<path class="st8" d="M437,324.1l0-6.1c0-3.3,2.7-6,6-6h7.6c3.3,0,6,2.7,6,6v6.1c0,3.3-2.7,6-6,6H443C439.7,330,437,327.4,437,324.1
		z"/>
	<g>
		<g>
			<g>
				<circle class="st5" cx="447" cy="315.6" r="1"/>
				<path class="st5" d="M447,315.6"/>
			</g>
			<g>
				<path class="st5" d="M446.9,323.3l0,3.7c0,0.7-1,0.7-1,0l0-3.7h-1.3l1.4-4.8h-0.2l-0.8,2.8c-0.2,0.6-1,0.4-0.8-0.3l0.9-3
					c0.1-0.3,0.5-1,1.3-1h0.7l0,0h0.7c0.7,0,1.2,0.6,1.3,1l0.9,3c0.2,0.6-0.6,0.9-0.8,0.3l-0.8-2.8h-0.2l1.4,4.8h-1.3v3.7
					c0,0.7-1,0.6-1,0l0-3.7H446.9z"/>
			</g>
		</g>
	</g>
	<g>
		<path class="st8" d="M458.5,324.5v-7.2c0-3,2.4-5.4,5.4-5.4h8.7c3,0,5.4,2.4,5.4,5.4v7.2c0,3-2.4,5.4-5.4,5.4h-8.7
			C460.9,329.9,458.5,327.5,458.5,324.5z"/>
		<g>
			<g>
				<g>
					<path class="st5" d="M467.2,316.8c-0.7,0-1.3,0.6-1.3,1.4v3.2c0,0.6,0.9,0.6,0.9,0v-3h0.2v8.2c0,0.8,1.2,0.8,1.2,0v-4.8h0.2
						v4.8c0,0.8,1.2,0.8,1.2,0v-8.2h0.2v3c0,0.6,0.9,0.6,0.9,0v-3.2c0-0.7-0.5-1.4-1.3-1.4L467.2,316.8z"/>
				</g>
				<g>
					<circle class="st5" cx="468.3" cy="315.5" r="1"/>
					<path class="st5" d="M468.3,315.5"/>
				</g>
			</g>
		</g>
	</g>
</g>
<g>
	<rect x="690.8" y="363.5" class="st5" width="30.4" height="30.4"/>
	<g>
		<path class="st8" d="M697,383.5v-7.2c0-3,2.4-5.4,5.4-5.4l8.7,0c3,0,5.4,2.4,5.4,5.4v7.2c0,3-2.4,5.4-5.4,5.4h-8.7
			C699.4,388.9,697,386.5,697,383.5z"/>
		<g>
			<g>
				<g>
					<path class="st5" d="M705.6,375.8c-0.7,0-1.3,0.6-1.3,1.4v3.2c0,0.6,0.9,0.6,0.9,0v-3h0.2v8.2c0,0.8,1.2,0.8,1.2,0v-4.8h0.2
						l0,4.8c0,0.8,1.2,0.8,1.2,0v-8.2h0.2v3c0,0.6,0.9,0.6,0.9,0v-3.2c0-0.7-0.5-1.4-1.3-1.4L705.6,375.8z"/>
				</g>
				<g>
					<circle class="st5" cx="706.7" cy="374.5" r="1"/>
					<path class="st5" d="M706.7,374.5"/>
				</g>
			</g>
		</g>
	</g>
</g>
<polygon id="Cooling_Tower_Area" class="st3s" points="608.7,247.7 481,247.7 481,219.6 420.3,219.6 420.3,294.8 481,294.8 
	481,294.3 608.7,294.3 "/>
<polygon id="Maintenance" class="st3s" points="632.3,297.5 632.3,316.1 612.6,316.1 612.6,351.7 655,351.7 655,323.5 655,316.1 
	655,297.5 "/>
<rect id="Maintenance_1_" x="282.5" y="296.8" class="st3s" width="36.3" height="41.8"/>
<text transform="matrix(1 0 0 1 285.9168 315.121)" class="st9s"><tspan x="0" y="0" class="st10 st11 st12">Mainte-</tspan><tspan x="0" y="10.8" class="st10 st11 st12">nance</tspan></text>
<text transform="matrix(1 0 0 1 479.1254 270.476)" class="st10 st11 st12">Cooling Tower Area</text>
<text transform="matrix(1 0 0 1 495.8338 235.726)" class="st10 st11 st12">4234</text>
<text transform="matrix(1 0 0 1 537.8337 235.726)" class="st10 st11 st12">4235</text>
<text transform="matrix(1 0 0 1 579.5837 235.7258)" class="st10 st11 st12">4236</text>
<text transform="matrix(1 0 0 1 624.8337 235.7263)" class="st10 st11 st12">4155</text>
<text transform="matrix(1 0 0 1 671.5837 220.9763)" class="st10 st11 st12">4162</text>
<text transform="matrix(1 0 0 1 699.812 220.9764)" class="st10 st11 st12">4163</text>
<text transform="matrix(1 0 0 1 671.5835 263.9999)" class="st10 st11 st12">4160</text>
<text transform="matrix(1 0 0 1 699.8117 264.0001)" class="st10 st11 st12">4161</text>
<text transform="matrix(1 0 0 1 671.5833 297.4875)" class="st10 st11 st12">4158</text>
<text transform="matrix(1 0 0 1 619.0836 330.2522)" class="st9s"><tspan x="0" y="0" class="st10 st11 st12">Mainte-</tspan><tspan x="0" y="10.8" class="st10 st11 st12">nance</tspan></text>
<text transform="matrix(1 0 0 1 575.8336 311.9914)" class="st10 st11 st12">4145</text>
<text transform="matrix(1 0 0 1 554.2288 340.5367)" class="st10 st11 st12">4147</text>
<text transform="matrix(1 0 0 1 507.7287 383.5367)" class="st10 st11 st12">4140</text>
<text transform="matrix(1 0 0 1 536.4788 383.5364)" class="st10 st11 st12">4142</text>
<text transform="matrix(1 0 0 1 563.5836 383.5366)" class="st10 st11 st12">4244</text>
<text transform="matrix(1 0 0 1 589.0204 383.5359)" class="st10 st11 st12">4146</text>
<text transform="matrix(1 0 0 1 617.2704 383.5361)" class="st10 st11 st12">4148</text>
<text transform="matrix(1 0 0 1 644.2704 383.5359)" class="st10 st11 st12">4150</text>
<text transform="matrix(1 0 0 1 669.3954 383.5365)" class="st10 st11 st12">4152</text>
<text transform="matrix(1 0 0 1 699.8115 297.4877)" class="st10 st11 st12">4159</text>
<text transform="matrix(1 0 0 1 624.8335 261.2042)" class="st10 st11 st12">4153</text>
<text transform="matrix(1 0 0 1 624.833 286.7042)" class="st10 st11 st12">4151</text>
<path class="st7" d="M664.8,244.7h56.6v-8.2h-56.6v-18.2h-0.1v-12.7H495.8v-16.2h-9v16.2h-73.2H282.5h-171v-4.8H101v49.3H63.5v16
	H101v48h10.5v-4.6h144v32h-8v10.2h-8.8V365h8.8h8h0.7h11v-15h159v-4.1v-6v-31.6h63.1v23.6h6.6v-23.6h25.4V364h9h136h23.1v-8.6h-23.1
	h-1.5v-29.6h56.4v-9.6h-2v-3.9h-48.4v3.9h-6v-38.9V244.7z M267.2,297.9H111.5v-31.7v-16v-31.8h155.7V297.9z M658,277.3v78.1H530.3
	v-47.1v-10.4H426.1h-8v10.4v31.6H280.5V218.3h2h131.2H658V277.3z"/>
</svg>
