<?xml version="1.0" encoding="utf-8"?>
<!-- Generator: Adobe Illustrator 21.0.2, SVG Export Plug-In . SVG Version: 6.00 Build 0)  -->
<svg version="1.1" id="Layer_1" xmlns="http://www.w3.org/2000/svg" xmlns:xlink="http://www.w3.org/1999/xlink" x="0px" y="0px"
	 viewBox="0 0 789 528" style="enable-background:new 0 0 789 528;" xml:space="preserve">
<style type="text/css">
	.st0{fill:#EDEDED;}
	.st1{fill:#E99723;}
	.st3{fill:#3AEFBF;}
	.st3s{fill:#9BCBDD;}
	.st5{fill:#AFAFAF;}
	.st6{fill:#474747;stroke:#474748;stroke-miterlimit:10;}
	.st8{fill:#474747;}
	.st7{fill:#CECECE;}
	.st10{fill:#FFFFFF;}
	.st11{font-family:'MyriadPro-Regular';}
	.st12{font-size:9px;}
	
</style>
<g id="building_1_">
	<polygon class="st0" points="10.3,35 789.1,37 762.3,100.6 741.5,100.6 741.5,107.3 744.7,107.3 744.7,112.9 713.8,185.1 
		713.8,189.9 727.2,189.9 725.9,477.3 10.3,479.8 	"/>
	<polygon id="building" class="st0" points="786.1,39 760.9,98.6 739.5,98.6 739.5,109.3 742.7,109.3 742.7,112.5 711.8,184.7 
		711.8,191.9 725.2,191.9 723.9,475.3 12.3,477.8 12.3,37 	"/>
</g>
<rect id="room_x5F_2103" x="134.9" y="312.8" class="st1" width="29.8" height="19.8"/>
<rect id="room_x5F_2104" x="63.2" y="315.3" class="st1" width="53.3" height="38"/>
<rect id="room_x5F_2105" x="134.9" y="335.5" class="st1" width="29.8" height="19.8"/>
<rect id="room_x5F_2106" x="117.7" y="367.2" class="st1" width="23.8" height="26.7"/>
<rect id="room_x5F_2108" x="144.5" y="367.1" class="st1" width="23.2" height="26.7"/>
<rect id="room_x5F_2109" x="167.7" y="312.8" class="st1" width="23.3" height="42.1"/>
<rect id="room_x5F_2110" x="170.7" y="367.2" class="st1" width="20.3" height="26.5"/>
<rect id="room_x5F_2111" x="194" y="312.8" class="st1" width="22.2" height="42.1"/>
<rect id="room_x5F_2112" x="194" y="367.3" class="st1" width="18.6" height="26.5"/>
<rect id="room_x5F_2113" x="219.2" y="312.8" class="st1" width="23.2" height="42.1"/>
<rect id="room_x5F_2114" x="215.6" y="367.3" class="st1" width="21.3" height="26.5"/>
<rect id="room_x5F_2117" x="245.3" y="312.8" class="st1" width="34.3" height="42.1"/>
<rect id="room_x5F_2118" x="270.1" y="367.1" class="st1" width="29.9" height="26.8"/>
<rect id="room_x5F_2119" x="282.7" y="312.8" class="st1" width="21" height="42.1"/>
<rect id="room_x5F_2122" x="303" y="367.1" class="st1" width="28.8" height="26.8"/>
<polygon id="room_x5F_2129" class="st1" points="415.3,342.1 415.3,326.8 331.8,326.8 331.8,359 334.8,359 334.8,393.9 441.8,393.9 
	441.8,360.8 441.8,359 441.8,342.1 "/>
<rect id="room_x5F_2142" x="530.8" y="327.1" class="st1" width="21.7" height="25.4"/>
<rect id="room_x5F_2143" x="555.5" y="327.1" class="st1" width="21.7" height="25.4"/>
<rect id="room_x5F_2144" x="530.8" y="355.5" class="st1" width="46.3" height="35.6"/>
<rect id="room_x5F_2145" x="502.7" y="394.1" class="st1" width="108.5" height="80.3"/>
<rect id="room_x5F_2147" x="592.3" y="355.5" class="st1" width="18.8" height="35.6"/>
<rect id="room_x5F_2149" x="614.2" y="327.1" class="st1" width="19.8" height="33.2"/>
<rect id="room_x5F_2150" x="614.2" y="363.3" class="st1" width="23.6" height="27.8"/>
<rect id="room_x5F_2151" x="640.8" y="363.3" class="st1" width="23.6" height="27.8"/>
<rect id="room_x5F_2151_1_" x="644.5" y="327.1" class="st1" width="19.8" height="33.2"/>
<rect id="room_x5F_2154" x="668.2" y="363.3" class="st1" width="15.1" height="22.2"/>
<rect id="room_x5F_2204" x="134.9" y="183.2" class="st1" width="29.8" height="19.8"/>
<rect id="room_x5F_2205" x="63.2" y="162.2" class="st1" width="53.3" height="36.8"/>
<rect id="room_x5F_2206" x="134.9" y="161" class="st1" width="29.8" height="18.7"/>
<rect id="room_x5F_2207" x="116.5" y="120.6" class="st1" width="25.1" height="28.5"/>
<rect id="room_x5F_2209" x="144.7" y="120.6" class="st1" width="23.8" height="28.5"/>
<rect id="room_x5F_2211" x="171.5" y="120.6" class="st1" width="25.2" height="28.5"/>
<rect id="room_x5F_2212" x="167.7" y="160.9" class="st1" width="23.3" height="42.1"/>
<rect id="room_x5F_2213" x="199.7" y="120.6" class="st1" width="23.3" height="28.5"/>
<rect id="room_x5F_2214" x="194" y="160.9" class="st1" width="22.2" height="42.1"/>
<rect id="room_x5F_2215" x="226" y="120.6" class="st1" width="23.3" height="28.5"/>
<rect id="room_x5F_2216" x="219.2" y="160.9" class="st1" width="23.2" height="42.1"/>
<rect id="room_x5F_2217" x="252.3" y="120.6" class="st1" width="25.3" height="28.5"/>
<rect id="room_x5F_2218" x="245.3" y="160.9" class="st1" width="34.3" height="42.1"/>
<rect id="room_x5F_2219" x="280.7" y="120.6" class="st1" width="23" height="28.5"/>
<rect id="room_x5F_2220" x="282.7" y="160.9" class="st1" width="21" height="42.1"/>
<rect id="room_x5F_2221" x="306.7" y="120.6" class="st1" width="25.3" height="28.5"/>
<rect id="room_x5F_2225" x="334.6" y="120.6" class="st1" width="25.3" height="36.9"/>
<polygon id="room_x5F_2230" class="st1" points="362.9,120.6 362.9,160.5 334.6,160.5 334.6,188 362.9,188 441.8,188 441.8,120.6 
	"/>
<rect id="room_x5F_2311" x="562.3" y="41.1" class="st3" width="83.3" height="94.3"/>
<polygon id="room_x5F_2312" class="st3" points="722.5,41.1 666.8,41.1 665.8,41.1 649,41.1 649,93.9 665.8,93.9 666.8,93.9 
	722.5,93.9 722.5,80.8 740,80.8 756.5,41.1 "/>
<rect id="room_x5F_2310" x="562.3" y="138.5" class="st3" width="66" height="46.7"/>
<g id="craneBay_x5F_firstFloor_1_">
	<rect x="134.9" y="205.7" class="st3s" width="570.5" height="101.8"/>
	<rect id="craneBay_x5F_firstFloor" x="614.2" y="394.1" class="st3s" width="104.3" height="80.3"/>
</g>
<g id="stairs_5_">
	<rect x="678.5" y="309.5" class="st5" width="40" height="39.4"/>
	<g>
		<rect x="680.9" y="340.7" class="st6" width="7.9" height="1.7"/>
		
			<rect x="684.6" y="338.2" transform="matrix(6.123234e-17 -1 1 6.123234e-17 348.9229 1027.0049)" class="st6" width="6.7" height="1.7"/>
		<rect x="687.1" y="335.3" class="st6" width="7.9" height="1.7"/>
		
			<rect x="690.8" y="332.8" transform="matrix(6.123234e-17 -1 1 6.123234e-17 360.579 1027.8101)" class="st6" width="6.7" height="1.7"/>
		<rect x="693.4" y="329.9" class="st6" width="7.9" height="1.7"/>
		
			<rect x="697.1" y="327.4" transform="matrix(6.123234e-17 -1 1 6.123234e-17 372.235 1028.6152)" class="st6" width="6.7" height="1.7"/>
		<rect x="699.6" y="324.5" class="st6" width="7.9" height="1.7"/>
		
			<rect x="703.3" y="321.9" transform="matrix(6.123234e-17 -1 1 6.123234e-17 383.8911 1029.4203)" class="st6" width="6.7" height="1.7"/>
		<rect x="705.8" y="319" class="st6" width="7.9" height="1.7"/>
	</g>
</g>
<g id="stairs">
	<rect x="449.5" y="324.6" class="st5" width="48.3" height="21.7"/>
	<g>
		<rect x="461.2" y="343.4" class="st6" width="6.3" height="1.3"/>
		
			<rect x="464.1" y="341.4" transform="matrix(6.123234e-17 -1 1 6.123234e-17 124.6918 808.864)" class="st6" width="5.4" height="1.3"/>
		<rect x="466.1" y="339.1" class="st6" width="6.3" height="1.3"/>
		
			<rect x="469.1" y="337.1" transform="matrix(6.123234e-17 -1 1 6.123234e-17 133.964 809.5045)" class="st6" width="5.4" height="1.3"/>
		<rect x="471.1" y="334.8" class="st6" width="6.3" height="1.3"/>
		
			<rect x="474" y="332.8" transform="matrix(6.123234e-17 -1 1 6.123234e-17 143.2361 810.1449)" class="st6" width="5.4" height="1.3"/>
		<rect x="476" y="330.5" class="st6" width="6.3" height="1.3"/>
		
			<rect x="479" y="328.5" transform="matrix(6.123234e-17 -1 1 6.123234e-17 152.5083 810.7854)" class="st6" width="5.4" height="1.3"/>
		<rect x="481" y="326.2" class="st6" width="6.3" height="1.3"/>
	</g>
</g>
<g id="stairs_2_">
	<rect x="447.5" y="166.3" class="st5" width="51.8" height="21.7"/>
	<g>
		<rect x="460.8" y="185.1" class="st6" width="6.3" height="1.3"/>
		
			<rect x="463.7" y="183.1" transform="matrix(6.123234e-17 -1 1 6.123234e-17 282.587 650.1656)" class="st6" width="5.4" height="1.3"/>
		<rect x="465.7" y="180.8" class="st6" width="6.3" height="1.3"/>
		
			<rect x="468.7" y="178.8" transform="matrix(6.123234e-17 -1 1 6.123234e-17 291.8591 650.8062)" class="st6" width="5.4" height="1.3"/>
		<rect x="470.7" y="176.5" class="st6" width="6.3" height="1.3"/>
		
			<rect x="473.6" y="174.5" transform="matrix(6.123234e-17 -1 1 6.123234e-17 301.1313 651.4466)" class="st6" width="5.4" height="1.3"/>
		<rect x="475.6" y="172.2" class="st6" width="6.3" height="1.3"/>
		
			<rect x="478.6" y="170.2" transform="matrix(6.123234e-17 -1 1 6.123234e-17 310.4035 652.0871)" class="st6" width="5.4" height="1.3"/>
		<rect x="480.6" y="167.9" class="st6" width="6.3" height="1.3"/>
	</g>
</g>
<g id="stairs_3_">
	<polyline class="st5" points="521.5,94.8 544,41.1 560,41.1 560,51.4 542.5,94.8 	"/>
	<g>
		<rect x="529.1" y="80.6" class="st6" width="5.9" height="1.5"/>
		
			<rect x="531.5" y="78.5" transform="matrix(6.123234e-17 -1 1 6.123234e-17 455.2305 613.5648)" class="st6" width="5.9" height="1.2"/>
		<rect x="533.8" y="75.9" class="st6" width="5.9" height="1.5"/>
		
			<rect x="536.2" y="73.8" transform="matrix(6.123234e-17 -1 1 6.123234e-17 464.6497 613.5413)" class="st6" width="5.9" height="1.2"/>
		<rect x="538.5" y="71.2" class="st6" width="5.9" height="1.5"/>
		
			<rect x="540.9" y="69.1" transform="matrix(6.123234e-17 -1 1 6.123234e-17 474.0689 613.5177)" class="st6" width="5.9" height="1.2"/>
		<rect x="543.2" y="66.5" class="st6" width="5.9" height="1.5"/>
		
			<rect x="545.6" y="64.4" transform="matrix(6.123234e-17 -1 1 6.123234e-17 483.4881 613.4941)" class="st6" width="5.9" height="1.2"/>
		<rect x="547.9" y="61.8" class="st6" width="5.9" height="1.5"/>
	</g>
</g>
<g id="stairs_4_">
	<polygon class="st5" points="759.6,41.1 781.8,41.1 758.5,93.9 742,93.9 742,83 	"/>
	<g>
		<rect x="745.7" y="80.2" class="st6" width="5.9" height="1.5"/>
		
			<rect x="748.1" y="78.1" transform="matrix(6.123234e-17 -1 1 6.123234e-17 672.2504 829.7734)" class="st6" width="5.9" height="1.2"/>
		<rect x="750.4" y="75.5" class="st6" width="5.9" height="1.5"/>
		
			<rect x="752.8" y="73.4" transform="matrix(6.123234e-17 -1 1 6.123234e-17 681.6696 829.7499)" class="st6" width="5.9" height="1.2"/>
		<rect x="755.1" y="70.8" class="st6" width="5.9" height="1.5"/>
		
			<rect x="757.5" y="68.7" transform="matrix(6.123234e-17 -1 1 6.123234e-17 691.0887 829.7263)" class="st6" width="5.9" height="1.2"/>
		<rect x="759.8" y="66.1" class="st6" width="5.9" height="1.5"/>
		
			<rect x="762.2" y="64" transform="matrix(6.123234e-17 -1 1 6.123234e-17 700.5079 829.7028)" class="st6" width="5.9" height="1.2"/>
		<rect x="764.5" y="61.3" class="st6" width="5.9" height="1.5"/>
	</g>
</g>
<g id="elevator_1_">
	<rect x="520" y="108.4" class="st5" width="39.3" height="19.3"/>
	<g>
		<g>
			<path class="st8" d="M538.5,119.4L538.5,119.4l0.1,2.5c0,0,0,0.3,0.3,0.3c0.3,0,0.3-0.3,0.3-0.3v-2.6h0.8l-0.9-3.2h0.1l0.6,1.9
				c0,0,0.1,0.2,0.3,0.1c0.2-0.1,0.1-0.3,0.1-0.3s-0.5-1.9-0.6-2.1c-0.1-0.2-0.3-0.6-0.6-0.6h-0.5"/>
			<path class="st8" d="M539.1,114.4c0,0.4-0.3,0.7-0.6,0.7c-0.3,0-0.6-0.3-0.6-0.7c0-0.4,0.3-0.7,0.6-0.7
				C538.8,113.8,539.1,114.1,539.1,114.4"/>
			<path class="st8" d="M538.5,119.4L538.5,119.4l-0.1,2.5c0,0,0,0.3-0.3,0.3s-0.3-0.3-0.3-0.3v-2.6H537l0.9-3.2h-0.1l-0.6,1.9
				c0,0-0.1,0.2-0.3,0.1c-0.2-0.1-0.1-0.3-0.1-0.3s0.5-1.9,0.6-2.1c0.1-0.2,0.3-0.6,0.6-0.6h0.5"/>
		</g>
		<g>
			<path class="st8" d="M542.2,115.3h0.8c0.5,0,0.7,0.5,0.7,0.7v2.4c0,0-0.1,0.2-0.3,0.2c-0.2,0-0.2-0.2-0.2-0.2v-2h-0.2v3l0,2.6
				c0,0,0,0.3-0.3,0.3c-0.3,0-0.4-0.3-0.4-0.3l0-3.2h-0.1"/>
			<path class="st8" d="M542.8,114.4c0,0.4-0.3,0.7-0.6,0.7c-0.3,0-0.6-0.3-0.6-0.7c0-0.4,0.3-0.7,0.6-0.7
				C542.6,113.8,542.8,114.1,542.8,114.4"/>
			<path class="st8" d="M542.4,115.3h-0.8c-0.5,0-0.7,0.5-0.7,0.7v2.4c0,0,0.1,0.2,0.3,0.2c0.2,0,0.2-0.2,0.2-0.2v-2h0.2v3l0,2.6
				c0,0,0,0.3,0.3,0.3s0.4-0.3,0.4-0.3l0-3.2h0.1"/>
		</g>
		<g>
			<path class="st8" d="M531.5,122.9c-0.5,0-1-0.3-1-0.7l0,0l0-8.7c0-0.4,0.4-0.7,1-0.7l0,0h17.7c0.5,0,1,0.3,1,0.7l0,0v8.7h0
				c0,0.4-0.4,0.7-1,0.7l0,0L531.5,122.9L531.5,122.9z M549.2,122.2v-8.7h-17.7v8.7H549.2L549.2,122.2z"/>
			<polyline class="st8" points="534.5,112.3 540.3,108.4 546.2,112.3 			"/>
			<polyline class="st8" points="546.2,123.3 540.3,127.2 534.5,123.3 			"/>
		</g>
	</g>
</g>
<g id="bathroom_1_">
	<rect x="520" y="130" class="st5" width="39.3" height="55"/>
	<g>
		<path class="st8" d="M522.3,157.5L522.3,157.5c0-8.9,7.2-16.1,16.1-16.1l2.7,0c8.9,0,16.1,7.2,16.1,16.1v0
			c0,8.9-7.2,16.1-16.1,16.1h-2.7C529.5,173.6,522.3,166.4,522.3,157.5z"/>
		<g>
			<g>
				<g>
					<rect x="539.2" y="145.6" class="st5" width="2.1" height="22.6"/>
					<path class="st5" d="M540.3,156.9"/>
				</g>
				<g>
					<g>
						<circle class="st5" cx="532.5" cy="147.3" r="1.9"/>
						<path class="st5" d="M532.5,147.3"/>
					</g>
					<g>
						<path class="st5" d="M532.2,160.9l0,6.5c0,1.2-1.8,1.2-1.8,0l0-6.5h-2.3l2.5-8.6h-0.4l-1.5,4.9c-0.3,1.1-1.8,0.6-1.5-0.5
							l1.6-5.4c0.2-0.6,0.9-1.7,2.3-1.7h1.2l0,0h1.3c1.3,0,2.1,1.1,2.3,1.7l1.6,5.3c0.3,1.2-1.1,1.6-1.5,0.5l-1.5-4.9l-0.4,0
							l2.5,8.6h-2.3v6.5c0,1.2-1.7,1.2-1.7,0v-6.5H532.2z"/>
					</g>
				</g>
				<g>
					<g>
						<path class="st5" d="M545.8,149.6c-1.3,0-2.4,1.1-2.4,2.4v5.8c0,1.1,1.6,1.1,1.6,0v-5.3h0.4v14.6c0,1.5,2.1,1.5,2.1,0v-8.5
							h0.4v8.5c0,1.5,2.2,1.5,2.2,0v-14.6h0.4v5.3c0,1.1,1.6,1.1,1.6,0v-5.7c0-1.2-1-2.5-2.4-2.5L545.8,149.6z"/>
					</g>
					<g>
						<circle class="st5" cx="547.7" cy="147.3" r="1.9"/>
						<path class="st5" d="M547.7,147.3"/>
					</g>
				</g>
			</g>
		</g>
	</g>
</g>
<g id="bathroom">
	<rect x="96" y="205.7" class="st5" width="20.6" height="37.3"/>
	<path class="st8" d="M96.3,227.1V220c0-3,2.4-5.4,5.4-5.4h8.5c3,0,5.4,2.4,5.4,5.4l0,7.1c0,3-2.4,5.4-5.4,5.4h-8.5
		C98.8,232.5,96.3,230,96.3,227.1z"/>
	<g>
		<g>
			<g>
				<path class="st5" d="M104.9,219.5c-0.7,0-1.3,0.6-1.3,1.4v3.2c0,0.6,0.9,0.6,0.9,0v-2.9h0.2l0,8.1c0,0.8,1.2,0.8,1.2,0l0-4.7
					h0.2v4.7c0,0.8,1.2,0.8,1.2,0l0-8.1h0.2v2.9c0,0.6,0.9,0.6,0.9,0v-3.2c0-0.7-0.5-1.4-1.3-1.4L104.9,219.5z"/>
			</g>
			<g>
				<circle class="st5" cx="106" cy="218.2" r="1"/>
				<path class="st5" d="M106,218.2"/>
			</g>
		</g>
	</g>
</g>
<g id="bathroom_3_">
	<rect x="685.7" y="353.7" class="st5" width="20.6" height="37.3"/>
	<path class="st8" d="M686.1,375.1V368c0-3,2.4-5.4,5.4-5.4h8.5c3,0,5.4,2.4,5.4,5.4v7.1c0,3-2.4,5.4-5.4,5.4l-8.5,0
		C688.5,380.5,686.1,378.1,686.1,375.1z"/>
	<g>
		<g>
			<g>
				<path class="st5" d="M694.7,367.6c-0.7,0-1.3,0.6-1.3,1.4v3.2c0,0.6,0.9,0.6,0.9,0v-2.9h0.2v8.1c0,0.8,1.2,0.8,1.2,0v-4.7h0.2
					v4.7c0,0.8,1.2,0.8,1.2,0v-8.1h0.2v2.9c0,0.6,0.9,0.6,0.9,0v-3.2c0-0.7-0.5-1.4-1.3-1.4L694.7,367.6z"/>
			</g>
			<g>
				<circle class="st5" cx="695.8" cy="366.2" r="1"/>
				<path class="st5" d="M695.8,366.2"/>
			</g>
		</g>
	</g>
</g>
<g id="stairs_1_">
	<rect x="64.6" y="205.5" class="st5" width="29.1" height="37.1"/>
	<g>
		<rect x="65.9" y="233.6" class="st6" width="5.9" height="1.5"/>
		
			<rect x="68.3" y="231.5" transform="matrix(6.123234e-17 -1 1 6.123234e-17 -160.9135 303.4293)" class="st6" width="5.9" height="1.2"/>
		<rect x="70.6" y="228.9" class="st6" width="5.9" height="1.5"/>
		
			<rect x="73" y="226.8" transform="matrix(6.123234e-17 -1 1 6.123234e-17 -151.4943 303.4058)" class="st6" width="5.9" height="1.2"/>
		<rect x="75.3" y="224.2" class="st6" width="5.9" height="1.5"/>
		
			<rect x="77.7" y="222.1" transform="matrix(6.123234e-17 -1 1 6.123234e-17 -142.0751 303.3822)" class="st6" width="5.9" height="1.2"/>
		<rect x="80" y="219.5" class="st6" width="5.9" height="1.5"/>
		
			<rect x="82.4" y="217.4" transform="matrix(6.123234e-17 -1 1 6.123234e-17 -132.6559 303.3586)" class="st6" width="5.9" height="1.2"/>
		<rect x="84.7" y="214.8" class="st6" width="5.9" height="1.5"/>
	</g>
</g>
<g id="elevator">
	<rect x="63.7" y="272" class="st5" width="29.1" height="38.8"/>
	<g>
		<g>
			<path class="st8" d="M76.2,293.1h0.1v2.9c0,0,0,0.4,0.4,0.4c0.3,0,0.4-0.3,0.4-0.3v-3h1.1l-1.2-3.7h0.2l0.7,2.2
				c0,0,0.1,0.2,0.4,0.1c0.3-0.1,0.2-0.3,0.2-0.3s-0.7-2.2-0.7-2.4c-0.1-0.2-0.4-0.7-0.8-0.7h-0.7"/>
			<path class="st8" d="M77,287.3c0,0.4-0.4,0.8-0.8,0.8c-0.4,0-0.8-0.4-0.8-0.8c0-0.4,0.4-0.8,0.8-0.8
				C76.6,286.6,77,286.9,77,287.3"/>
			<path class="st8" d="M76.3,293.1h-0.1v2.9c0,0,0,0.4-0.4,0.4c-0.3,0-0.4-0.3-0.4-0.3v-3h-1.1l1.2-3.7h-0.2l-0.7,2.2
				c0,0-0.1,0.2-0.4,0.1c-0.3-0.1-0.2-0.3-0.2-0.3s0.7-2.2,0.7-2.4c0.1-0.2,0.4-0.7,0.8-0.7h0.7"/>
		</g>
		<g>
			<path class="st8" d="M81,288.3H82c0.6,0,0.9,0.6,0.9,0.8v2.8c0,0-0.1,0.3-0.3,0.3c-0.3,0-0.3-0.3-0.3-0.3v-2.3h-0.2v3.4l0,3
				c0,0,0,0.3-0.4,0.3c-0.4,0-0.5-0.4-0.5-0.4l0-3.7h-0.1"/>
			<path class="st8" d="M81.8,287.3c0,0.4-0.4,0.8-0.8,0.8c-0.4,0-0.8-0.4-0.8-0.8c0-0.4,0.4-0.8,0.8-0.8
				C81.4,286.6,81.8,286.9,81.8,287.3"/>
			<path class="st8" d="M81.3,288.3h-1.1c-0.6,0-0.9,0.6-0.9,0.8v2.8c0,0,0.1,0.3,0.3,0.3c0.3,0,0.3-0.3,0.3-0.3v-2.3h0.2v3.4l0,3
				c0,0,0,0.3,0.4,0.3c0.4,0,0.5-0.4,0.5-0.4l0-3.7h0.1"/>
		</g>
		<path class="st8" d="M69.9,298.7c-0.5,0-1-0.5-1-1.1l0,0l0-13c0-0.6,0.4-1.1,1-1.1l0,0h17.7c0.5,0,1,0.5,1,1.1l0,0v13h0
			c0,0.6-0.4,1.1-1,1.1l0,0L69.9,298.7L69.9,298.7z M87.6,297.6v-12.9H69.9v12.9H87.6L87.6,297.6z"/>
		<polyline class="st8" points="72.9,283.1 78.7,277.2 84.6,283.1 		"/>
		<polyline class="st8" points="84.6,299.2 78.7,305.1 72.9,299.2 		"/>
	</g>
</g>
<g id="bathroom_2_">
	<rect x="96.2" y="272.2" class="st5" width="20.8" height="37.7"/>
	<path class="st8" d="M96.6,293.2v-6.1c0-3.3,2.7-6,6-6h7.6c3.3,0,6,2.7,6,6v6.1c0,3.3-2.7,6-6,6h-7.6
		C99.2,299.2,96.6,296.5,96.6,293.2z"/>
	<g>
		<g>
			<g>
				<circle class="st5" cx="106.6" cy="284.8" r="1"/>
				<path class="st5" d="M106.6,284.8"/>
			</g>
			<g>
				<path class="st5" d="M106.5,292.4l0,3.7c0,0.7-1,0.7-1,0l0-3.7h-1.3l1.4-4.8h-0.2l-0.8,2.8c-0.2,0.6-1,0.4-0.8-0.3l0.9-3
					c0.1-0.3,0.5-1,1.3-1h0.7l0,0h0.7c0.7,0,1.2,0.6,1.3,1l0.9,3c0.2,0.6-0.6,0.9-0.8,0.3l-0.8-2.8h-0.2l1.4,4.8h-1.3l0,3.7
					c0,0.7-1,0.6-1,0l0-3.7H106.5z"/>
			</g>
		</g>
	</g>
</g>
<polygon id="hallway_x5F_2" class="st7" points="739.3,91.7 739.3,84.2 727.7,84.2 727.8,96.4 656.3,96.3 656.3,108.1 650.3,108.2 
	650,188.6 515,188.6 515,105.1 560,105.1 560,97.7 515,97.7 515,94.8 523,76.2 515,76.2 502.3,76.2 502.3,188.6 502.3,191.2 
	498.8,191.2 317.7,191.2 317.7,151.7 306.7,151.7 120.2,151.7 120.2,156 120.2,159 120.2,247 63.7,247 63.7,269.2 120.2,269.2 
	120.2,362.7 120.2,364.1 120.2,364.4 131.5,364.4 328.8,364.4 328.8,357.7 315.5,357.7 315.5,323.2 522.9,323.2 522.9,391.1 
	528.4,391.1 528.4,323.2 579.2,323.2 579.2,390.5 589.3,390.5 589.3,323.2 636.3,323.2 636.3,360.3 642.3,360.3 642.3,323.2 
	666.5,323.2 666.5,361 675.7,361 675.7,323.2 675.7,319.9 675.7,312.8 315.5,312.8 307,312.8 307,357.7 131.5,357.7 131.5,159 
	306.7,159 306.7,191.2 306.7,192.2 306.7,203 498.8,203 502.3,200.5 705.3,200.5 705.3,188.6 705.3,183.2 708.7,183.1 739.3,110.7 
	734.9,110.7 734.9,91.7 "/>
<text transform="matrix(1 0 0 1 140.3747 325.4888)" class="st10 st11 st12">2103</text>
<text transform="matrix(1 0 0 1 140.3749 348.4888)" class="st10 st11 st12">2105</text>
<text transform="matrix(1 0 0 1 120.6249 383.9888)" class="st10 st11 st12">2106</text>
<text transform="matrix(1 0 0 1 80.2991 337.7707)" class="st10 st11 st12">2104</text>
<text transform="matrix(1 0 0 1 80.0302 183.7896)" class="st10 st11 st12">2205</text>
<text transform="matrix(1 0 0 1 140.8051 173.6591)" class="st10 st11 st12">2205</text>
<text transform="matrix(1 0 0 1 119.8051 137.9924)" class="st10 st11 st12">2207</text>
<text transform="matrix(1 0 0 1 147.6385 137.9927)" class="st10 st11 st12">2209</text>
<text transform="matrix(1 0 0 1 174.9718 137.9924)" class="st10 st11 st12">2211</text>
<text transform="matrix(1 0 0 1 201.8051 137.9929)" class="st10 st11 st12">2213</text>
<text transform="matrix(1 0 0 1 228.6385 137.9922)" class="st10 st11 st12">2215</text>
<text transform="matrix(1 0 0 1 255.8051 137.9922)" class="st10 st11 st12">2217</text>
<text transform="matrix(1 0 0 1 282.6666 137.9922)" class="st10 st11 st12">2219</text>
<text transform="matrix(1 0 0 1 310.3333 137.9929)" class="st10 st11 st12">2221</text>
<text transform="matrix(1 0 0 1 338.1666 141.9929)" class="st10 st11 st12">2225</text>
<text transform="matrix(1 0 0 1 386.6666 157.4998)" class="st10 st11 st12">2230</text>
<text transform="matrix(1 0 0 1 397.1666 256.6125)" class="st10 st11 st12">OPEN CRANE BAY (1st floor)</text>
<text transform="matrix(1 0 0 1 632.2272 434.3)" class="st11"><tspan x="0" y="0" class="st10 st11 st12">OPEN CRANE BAY </tspan><tspan x="16.3" y="10.8" class="st10 st11 st12">(1st floor)</tspan></text>
<text transform="matrix(1 0 0 1 594.3335 89.4998)" class="st10 st11 st12">2311</text>
<text transform="matrix(1 0 0 1 586.0001 163.4998)" class="st10 st11 st12">2310</text>
<text transform="matrix(1 0 0 1 690.0001 67.5259)" class="st10 st11 st12">2132</text>
<text transform="matrix(1 0 0 1 140.3747 195.6591)" class="st10 st11 st12">2205</text>
<text transform="matrix(1 0 0 1 146.6249 383.9893)" class="st10 st11 st12">2108</text>
<text transform="matrix(1 0 0 1 171.5415 383.9893)" class="st10 st11 st12">2110</text>
<text transform="matrix(1 0 0 1 193.9999 383.9888)" class="st10 st11 st12">2112</text>
<text transform="matrix(1 0 0 1 216.9165 383.9883)" class="st10 st11 st12">2114</text>
<text transform="matrix(1 0 0 1 169.6665 335.5478)" class="st10 st11 st12">2109</text>
<text transform="matrix(1 0 0 1 195.9165 335.5478)" class="st10 st11 st12">2111</text>
<text transform="matrix(1 0 0 1 221.1665 335.5478)" class="st10 st11 st12">2113</text>
<text transform="matrix(1 0 0 1 253.1665 335.5477)" class="st10 st11 st12">2117</text>
<text transform="matrix(1 0 0 1 284.025 335.5477)" class="st10 st11 st12">2119</text>
<text transform="matrix(1 0 0 1 170.0708 185.799)" class="st10 st11 st12">2212</text>
<text transform="matrix(1 0 0 1 196.3208 185.7989)" class="st10 st11 st12">2214</text>
<text transform="matrix(1 0 0 1 221.5708 185.7989)" class="st10 st11 st12">2216</text>
<text transform="matrix(1 0 0 1 253.5708 185.7988)" class="st10 st11 st12">2218</text>
<text transform="matrix(1 0 0 1 283.4293 185.7988)" class="st10 st11 st12">2220</text>
<text transform="matrix(1 0 0 1 276.025 383.9881)" class="st10 st11 st12">2118</text>
<text transform="matrix(1 0 0 1 308.525 383.9881)" class="st10 st11 st12">2122</text>
<text transform="matrix(1 0 0 1 375.821 364.6548)" class="st10 st11 st12">2129</text>
<text transform="matrix(1 0 0 1 533.1543 343.687)" class="st10 st11 st12">2142</text>
<text transform="matrix(1 0 0 1 556.9294 343.687)" class="st10 st11 st12">2143</text>
<text transform="matrix(1 0 0 1 544.8041 376.812)" class="st10 st11 st12">2144</text>
<text transform="matrix(1 0 0 1 545.8044 437.812)" class="st10 st11 st12">2145</text>
<text transform="matrix(1 0 0 1 592.6548 375.8117)" class="st10 st11 st12">2147</text>
<text transform="matrix(1 0 0 1 616.6548 380.3117)" class="st10 st11 st12">2150</text>
<text transform="matrix(1 0 0 1 643.4995 380.3119)" class="st10 st11 st12">2151</text>
<text transform="matrix(1 0 0 1 614.4998 347.0619)" class="st10 st11 st12">2149</text>
<text transform="matrix(1 0 0 1 645.4164 347.0623)" class="st10 st11 st12">2152</text>
<text transform="matrix(1 0 0 1 669.6797 372.3956)" class="st11"><tspan x="0" y="0" class="st10 st11 st12">21-</tspan><tspan x="0" y="10.8" class="st10 st11 st12">54</tspan></text>
</svg>
