<?xml version="1.0" encoding="utf-8"?>
<!-- Generator: Adobe Illustrator 21.0.2, SVG Export Plug-In . SVG Version: 6.00 Build 0)  -->
<svg version="1.1" id="Layer_1" xmlns="http://www.w3.org/2000/svg" xmlns:xlink="http://www.w3.org/1999/xlink" x="0px" y="0px"
	 viewBox="0 0 789 528" style="enable-background:new 0 0 789 528;" xml:space="preserve">
<style type="text/css">
	.st0{fill:#EDEDED;}
	.st1{fill:#E99723;}
	.st2{fill:#40A4E2;}
	.st3{fill:#5CEAC8;}
	.st4{fill:#DA76DD;}
	.st5{fill:#AFAFAF;}
	.st6{fill:#474747;stroke:#474748;stroke-miterlimit:10;}
	.st7{fill:#CECECE;}
	.st8{fill:#474747;stroke:#474748;stroke-width:0.25;stroke-miterlimit:10;}
	.st9{fill:#474747;}
	.st10{fill:#FFFFFF;}
	.st11{font-family:'MyriadPro-Regular';}
	.st12{font-size:9px;}
</style>
<g id="building_1_">
	<polygon class="st0" points="10.4,35 789.2,37 762.4,100.6 741.6,100.6 741.6,107.3 744.8,107.3 744.8,112.9 713.9,185.1 
		713.9,189.9 727.3,189.9 726,477.3 10.4,479.8 	"/>
	<polygon id="building" class="st0" points="786.2,39 761,98.6 739.6,98.6 739.6,109.3 742.8,109.3 742.8,112.5 711.9,184.7 
		711.9,191.9 725.3,191.9 724,475.3 12.4,477.8 12.4,37 	"/>
</g>
<rect id="room_x5F_1213_1_" x="15.4" y="41.1" class="st1" width="39" height="24.7"/>
<rect id="room_x5F_1212" x="68.1" y="41.1" class="st1" width="24.6" height="32.7"/>
<rect id="room_x5F_1210" x="68.1" y="76.7" class="st1" width="23.1" height="29.5"/>
<rect id="room_x5F_1206" x="68.1" y="141.8" class="st1" width="24.6" height="46"/>
<rect id="room_x5F_1215" x="95.7" y="141.8" class="st1" width="30" height="46"/>
<rect id="room_x5F_1225" x="138.4" y="141.8" class="st1" width="42.3" height="46"/>
<rect id="room_x5F_1215_2_" x="183.7" y="142.3" class="st1" width="100.3" height="46"/>
<rect id="room_x5F_1208" x="68.1" y="109.2" class="st1" width="57.6" height="29.5"/>
<rect id="room_x5F_1211_1_" x="15.4" y="69.4" class="st1" width="39" height="26"/>
<rect id="room_x5F_1207" x="15.4" y="122.4" class="st1" width="39" height="24.4"/>
<rect id="room_x5F_1203" x="15.4" y="149.8" class="st1" width="39" height="24.4"/>
<rect id="room_x5F_1205_1_" x="15.4" y="177.1" class="st1" width="39" height="24.4"/>
<rect id="room_x5F_1201" x="15.4" y="204.5" class="st1" width="39" height="24.4"/>
<rect id="room_x5F_1102" x="15.4" y="286" class="st1" width="31.1" height="24.4"/>
<rect id="room_x5F_1104" x="15.4" y="313.4" class="st1" width="39" height="24.4"/>
<rect id="room_x5F_1106" x="15.4" y="340.8" class="st1" width="39" height="22.7"/>
<rect id="room_x5F_1108" x="15.4" y="366.5" class="st1" width="39" height="22.7"/>
<rect id="room_x5F_1110" x="15.4" y="392.3" class="st1" width="39" height="24.2"/>
<polygon id="room_x5F_1229" class="st1" points="227.8,41.1 205.3,41.1 205.3,62.7 227.8,62.7 233,62.7 233,83.3 251.5,83.3 
	251.5,124 284,124 284,83.3 284,62.7 284,41.1 "/>
<polygon id="room_x5F_1220" class="st2" points="248.3,126.7 248.3,85.5 230,85.5 230,82.4 230,65.8 202.5,65.8 202.5,41.1 
	125.8,41.1 95.7,41.1 95.7,106.3 112,106.3 125.8,106.3 128.8,106.3 128.8,126.7 128.8,137 128.8,137 128.8,137.8 128.8,187.8 
	128.8,188 135.4,188 135.4,140.1 284,140.1 284,126.7 "/>
<polygon id="room_x5F_1114" class="st1" points="54.3,431.6 54.3,419.5 15.4,419.5 15.4,431.6 15.4,443.7 15.4,473.8 87,473.8 
	87,431.6 "/>
<rect id="room_x5F_1116" x="90" y="431.6" class="st1" width="31.8" height="42.1"/>
<rect id="room_x5F_1117" x="125.8" y="313.4" class="st1" width="44.8" height="75.9"/>
<rect id="room_x5F_1233" x="338.5" y="41.1" class="st1" width="54" height="82.9"/>
<rect id="room_x5F_1241" x="395.5" y="41.1" class="st1" width="46" height="27.4"/>
<rect id="room_x5F_1243" x="444.5" y="41.1" class="st1" width="25.8" height="27.4"/>
<rect id="room_x5F_1234" x="338.5" y="126.8" class="st1" width="54" height="61.5"/>
<polygon id="room_x5F_1239" class="st1" points="428,71.5 395.5,71.5 395.5,98.9 395.5,124 395.5,164 418.5,164 418.5,124 428,124 
	"/>
<rect id="room_x5F_1235" x="395.5" y="167.7" class="st1" width="32.5" height="20.6"/>
<polygon id="room_x5F_1245" class="st1" points="473.3,41.1 473.3,78.3 478,78.3 478,108.5 500.2,108.5 500.2,78.3 500.2,41.1 "/>
<rect id="room_x5F_1240" x="444.5" y="82.5" class="st1" width="30.5" height="19.6"/>
<rect id="room_x5F_1238" x="444.5" y="105.2" class="st1" width="30.5" height="27.8"/>
<path id="room_x5F_1310" class="st3" d="M677.3,122.7h-3.2v-10.4H660V41.1h-96V185h96v-11.7h17.3c0,0,3.3-10.6,3.3-25.7
	C680.7,129.4,677.3,122.7,677.3,122.7z"/>
<polygon id="room_x5F_1311" class="st3" points="722.5,41.1 665.8,41.1 665.8,93.9 722.5,93.9 722.5,80.8 740,80.8 756.5,41.1 "/>
<polygon id="room_x5F_1120" class="st1" points="238.5,431.6 238.5,392.5 238.5,351.3 228.5,351.3 228.5,329.8 228.5,313.4 
	218.3,313.4 173.5,313.4 173.5,387.8 180.5,387.8 180.5,431.6 180.5,438 166.3,438 166.3,465.8 166.3,473.8 180.5,473.8 
	220.5,473.8 246,473.8 246,431.6 "/>
<polygon id="room_x5F_reception" class="st4" points="122.8,313.4 101.4,313.4 98.4,313.4 68.1,313.4 68.1,423 101.4,423 101.4,385 
	122.8,385 "/>
<rect id="room_x5F_1126" x="241.5" y="332.8" class="st1" width="43.8" height="32.3"/>
<g id="room_x5F_craneBay">
	<polygon class="st2" points="345.5,206.9 340.5,206.9 336.8,216.2 336.8,295.2 340.5,304.5 345.5,304.5 718.5,304.5 718.5,206.9 	
		"/>
	<polygon class="st2" points="283.1,208.6 105.3,208.6 105.3,306.2 283.1,306.2 287.7,296.9 287.7,217.9 	"/>
</g>
<polygon id="room_x5F_1137" class="st2" points="497.8,395 497.8,354.7 445.3,354.7 445.3,313 396,313 396,473.8 445.3,473.8 
	615.7,473.8 615.7,395 "/>
<rect id="room_x5F_1135" x="343.5" y="313" class="st2" width="49.5" height="20.8"/>
<rect id="room_x5F_1131" x="343.5" y="447.3" class="st2" width="49.5" height="26.4"/>
<rect id="room_x5F_1132" x="343.5" y="336.9" class="st2" width="49.5" height="107.4"/>
<rect id="room_x5F_1141" x="501.8" y="313" class="st2" width="113.9" height="78.9"/>
<rect id="room_x5F_1140" x="618.7" y="356" class="st2" width="99.8" height="117.8"/>
<g id="stairs_5_">
	<rect x="678.5" y="309.5" class="st5" width="40" height="39.4"/>
	<g>
		<rect x="680.9" y="340.7" class="st6" width="7.9" height="1.7"/>
		
			<rect x="684.6" y="338.2" transform="matrix(6.123234e-17 -1 1 6.123234e-17 348.9229 1027.0049)" class="st6" width="6.7" height="1.7"/>
		<rect x="687.1" y="335.3" class="st6" width="7.9" height="1.7"/>
		
			<rect x="690.8" y="332.8" transform="matrix(6.123234e-17 -1 1 6.123234e-17 360.579 1027.8101)" class="st6" width="6.7" height="1.7"/>
		<rect x="693.4" y="329.9" class="st6" width="7.9" height="1.7"/>
		
			<rect x="697.1" y="327.4" transform="matrix(6.123234e-17 -1 1 6.123234e-17 372.235 1028.6152)" class="st6" width="6.7" height="1.7"/>
		<rect x="699.6" y="324.5" class="st6" width="7.9" height="1.7"/>
		
			<rect x="703.3" y="321.9" transform="matrix(6.123234e-17 -1 1 6.123234e-17 383.8911 1029.4203)" class="st6" width="6.7" height="1.7"/>
		<rect x="705.8" y="319" class="st6" width="7.9" height="1.7"/>
	</g>
</g>
<g id="stairs">
	<rect x="449.5" y="331.6" class="st5" width="48.3" height="21.7"/>
	<g>
		<rect x="461.2" y="350.4" class="st6" width="6.3" height="1.3"/>
		
			<rect x="464.1" y="348.4" transform="matrix(6.123234e-17 -1 1 6.123234e-17 117.6918 815.864)" class="st6" width="5.4" height="1.3"/>
		<rect x="466.1" y="346.1" class="st6" width="6.3" height="1.3"/>
		
			<rect x="469.1" y="344.1" transform="matrix(6.123234e-17 -1 1 6.123234e-17 126.964 816.5045)" class="st6" width="5.4" height="1.3"/>
		<rect x="471.1" y="341.8" class="st6" width="6.3" height="1.3"/>
		
			<rect x="474" y="339.8" transform="matrix(6.123234e-17 -1 1 6.123234e-17 136.2361 817.1449)" class="st6" width="5.4" height="1.3"/>
		<rect x="476" y="337.5" class="st6" width="6.3" height="1.3"/>
		
			<rect x="479" y="335.5" transform="matrix(6.123234e-17 -1 1 6.123234e-17 145.5083 817.7854)" class="st6" width="5.4" height="1.3"/>
		<rect x="481" y="333.2" class="st6" width="6.3" height="1.3"/>
	</g>
</g>
<g id="stairs_2_">
	<rect x="449.5" y="166.3" class="st5" width="51.8" height="21.7"/>
	<g>
		<rect x="462.8" y="185.1" class="st6" width="6.3" height="1.3"/>
		
			<rect x="465.7" y="183.1" transform="matrix(6.123234e-17 -1 1 6.123234e-17 284.587 652.1656)" class="st6" width="5.4" height="1.3"/>
		<rect x="467.7" y="180.8" class="st6" width="6.3" height="1.3"/>
		
			<rect x="470.7" y="178.8" transform="matrix(6.123234e-17 -1 1 6.123234e-17 293.8591 652.8062)" class="st6" width="5.4" height="1.3"/>
		<rect x="472.7" y="176.5" class="st6" width="6.3" height="1.3"/>
		
			<rect x="475.6" y="174.5" transform="matrix(6.123234e-17 -1 1 6.123234e-17 303.1313 653.4466)" class="st6" width="5.4" height="1.3"/>
		<rect x="477.6" y="172.2" class="st6" width="6.3" height="1.3"/>
		
			<rect x="480.6" y="170.2" transform="matrix(6.123234e-17 -1 1 6.123234e-17 312.4035 654.0871)" class="st6" width="5.4" height="1.3"/>
		<rect x="482.6" y="167.9" class="st6" width="6.3" height="1.3"/>
	</g>
</g>
<g id="stairs_3_">
	<polyline class="st5" points="521.5,94.8 544,41.1 560,41.1 560,51.4 542.5,94.8 	"/>
	<g>
		<rect x="529.1" y="80.6" class="st6" width="5.9" height="1.5"/>
		
			<rect x="531.5" y="78.5" transform="matrix(6.123234e-17 -1 1 6.123234e-17 455.2305 613.5648)" class="st6" width="5.9" height="1.2"/>
		<rect x="533.8" y="75.9" class="st6" width="5.9" height="1.5"/>
		
			<rect x="536.2" y="73.8" transform="matrix(6.123234e-17 -1 1 6.123234e-17 464.6497 613.5413)" class="st6" width="5.9" height="1.2"/>
		<rect x="538.5" y="71.2" class="st6" width="5.9" height="1.5"/>
		
			<rect x="540.9" y="69.1" transform="matrix(6.123234e-17 -1 1 6.123234e-17 474.0689 613.5177)" class="st6" width="5.9" height="1.2"/>
		<rect x="543.2" y="66.5" class="st6" width="5.9" height="1.5"/>
		
			<rect x="545.6" y="64.4" transform="matrix(6.123234e-17 -1 1 6.123234e-17 483.4881 613.4941)" class="st6" width="5.9" height="1.2"/>
		<rect x="547.9" y="61.8" class="st6" width="5.9" height="1.5"/>
	</g>
</g>
<g id="stairs_1_">
	<rect x="69.8" y="205.9" class="st5" width="29.1" height="37.1"/>
	<g>
		<rect x="71.1" y="234" class="st6" width="5.9" height="1.5"/>
		
			<rect x="73.5" y="231.9" transform="matrix(6.123234e-17 -1 1 6.123234e-17 -156.1352 308.8951)" class="st6" width="5.9" height="1.2"/>
		<rect x="75.8" y="229.3" class="st6" width="5.9" height="1.5"/>
		
			<rect x="78.1" y="227.2" transform="matrix(6.123234e-17 -1 1 6.123234e-17 -146.716 308.8715)" class="st6" width="5.9" height="1.2"/>
		<rect x="80.5" y="224.5" class="st6" width="5.9" height="1.5"/>
		
			<rect x="82.8" y="222.4" transform="matrix(6.123234e-17 -1 1 6.123234e-17 -137.2968 308.848)" class="st6" width="5.9" height="1.2"/>
		<rect x="85.2" y="219.8" class="st6" width="5.9" height="1.5"/>
		
			<rect x="87.5" y="217.7" transform="matrix(6.123234e-17 -1 1 6.123234e-17 -127.8777 308.8244)" class="st6" width="5.9" height="1.2"/>
		<rect x="89.8" y="215.1" class="st6" width="5.9" height="1.5"/>
	</g>
</g>
<g id="stairs_4_">
	<polygon class="st5" points="759.6,41.1 781.8,41.1 758.5,93.9 742,93.9 742,83 	"/>
	<g>
		<rect x="745.7" y="80.2" class="st6" width="5.9" height="1.5"/>
		
			<rect x="748.1" y="78.1" transform="matrix(6.123234e-17 -1 1 6.123234e-17 672.2504 829.7734)" class="st6" width="5.9" height="1.2"/>
		<rect x="750.4" y="75.5" class="st6" width="5.9" height="1.5"/>
		
			<rect x="752.8" y="73.4" transform="matrix(6.123234e-17 -1 1 6.123234e-17 681.6696 829.7499)" class="st6" width="5.9" height="1.2"/>
		<rect x="755.1" y="70.8" class="st6" width="5.9" height="1.5"/>
		
			<rect x="757.5" y="68.7" transform="matrix(6.123234e-17 -1 1 6.123234e-17 691.0887 829.7263)" class="st6" width="5.9" height="1.2"/>
		<rect x="759.8" y="66.1" class="st6" width="5.9" height="1.5"/>
		
			<rect x="762.2" y="64" transform="matrix(6.123234e-17 -1 1 6.123234e-17 700.5079 829.7028)" class="st6" width="5.9" height="1.2"/>
		<rect x="764.5" y="61.3" class="st6" width="5.9" height="1.5"/>
	</g>
</g>
<path id="hallway" class="st7" d="M736.5,118.1V83.5h-10.8v14.6h-61.7v13.4h12.6l0.5,10.1h3.2c0,0,3.3,3.8,3.1,26.9
	c-0.2,21.7-4.3,29.1-4.3,29.1h-15.1v15.4H514.8v-84.4h47V98h-47V77H526V41.1h-21.8V77v115.9h-62.7V79.2h28.8v-6.5h-28.8H432v120.2
	h-96.5V41.1H288v151.8H66V41.1H55.8v193.4H15.4V282h40.4v148.6H66h56.8v-6.4H66V282v-13.8h22.5v-22.5H66v-11.3V204h221.7l4.8,12.4
	v84.1l-5,12.9h-53.7v16h53.7v69.8h-37v74.6h37h49V313.4l-0.7-1.7h282.5v40.8H674v-40.8v-6H333.5l-2-5.2v-84.1l4.8-12.4H432h9.5
	h276.9v-11.1h-10.8v-7.1L736.5,118.1z"/>
<g id="entrance_1_">
	<g>
		<path class="st8" d="M291.9,471.8l-4.5,4.5l-0.5,0.5l-0.5-0.5l-4.5-4.5v-1.9l5,5l5-5V471.8L291.9,471.8z M281.9,468.6l4.5,4.5
			l0.5,0.5l0.5-0.5l4.5-4.5v-1.9l-5,5l-5-5V468.6z"/>
	</g>
	<g id="entrance">
		<path class="st8" d="M309.4,43.1l-4.5,4.5l-0.5,0.5l-0.5-0.5l-4.5-4.5v-1.9l5,5l5-5V43.1L309.4,43.1z M299.4,39.9l4.5,4.5l0.5,0.5
			l0.5-0.5l4.5-4.5V38l-5,5l-5-5V39.9z"/>
		<path class="st8" d="M325.1,43v1.9l-5-5l-5,5V43l4.5-4.5l0.5-0.5l0.5,0.5L325.1,43L325.1,43z M315.1,48.1l5-5l5,5v-1.9l-4.5-4.5
			l-0.5-0.5l-0.5,0.5l-4.5,4.5V48.1z"/>
		<path class="st8" d="M514.3,43.1l-4.5,4.5l-0.5,0.5l-0.5-0.5l-4.5-4.5v-1.9l5,5l5-5V43.1L514.3,43.1z M504.3,39.9l4.5,4.5l0.5,0.5
			l0.5-0.5l4.5-4.5V38l-5,5l-5-5V39.9z"/>
		<path class="st8" d="M527,43v1.9l-5-5l-5,5V43l4.5-4.5L522,38l0.5,0.5L527,43L527,43z M517,48.1l5-5l5,5v-1.9l-4.5-4.5l-0.5-0.5
			l-0.5,0.5l-4.5,4.5V48.1z"/>
		<path class="st8" d="M17.4,257.6l-4.5-4.5l-0.5-0.5l0.5-0.5l4.5-4.5h1.9l-5,5l5,5H17.4L17.4,257.6z M20.6,247.6l-4.5,4.5l-0.5,0.5
			l0.5,0.5l4.5,4.5h1.9l-5-5l5-5H20.6z"/>
		<path class="st8" d="M17.5,273.4h-1.9l5-5l-5-5h1.9l4.5,4.5l0.5,0.5l-0.5,0.5L17.5,273.4L17.5,273.4z M12.4,263.4l5,5l-5,5h1.9
			l4.5-4.5l0.5-0.5l-0.5-0.5l-4.5-4.5H12.4z"/>
		<path class="st8" d="M307.6,471.7v1.9l-5-5l-5,5v-1.9l4.5-4.5l0.5-0.5l0.5,0.5L307.6,471.7L307.6,471.7z M297.6,476.8l5-5l5,5
			v-1.9l-4.5-4.5l-0.5-0.5l-0.5,0.5l-4.5,4.5V476.8z"/>
		<path class="st8" d="M718.6,335.9l4.5,4.5l0.5,0.5l-0.5,0.5l-4.5,4.5h-1.9l5-5l-5-5H718.6L718.6,335.9z M715.3,345.9l4.5-4.5
			l0.5-0.5l-0.5-0.5l-4.5-4.5h-1.9l5,5l-5,5H715.3z"/>
		<path class="st8" d="M718.4,323.1h1.9l-5,5l5,5h-1.9l-4.5-4.5l-0.5-0.5l0.5-0.5L718.4,323.1L718.4,323.1z M723.6,333.1l-5-5l5-5
			h-1.9l-4.5,4.5l-0.5,0.5l0.5,0.5l4.5,4.5H723.6z"/>
		<path class="st8" d="M718.6,200.5l4.5,4.5l0.5,0.5l-0.5,0.5l-4.5,4.5h-1.9l5-5l-5-5H718.6L718.6,200.5z M715.3,210.5l4.5-4.5
			l0.5-0.5l-0.5-0.5l-4.5-4.5h-1.9l5,5l-5,5H715.3z"/>
		<path class="st8" d="M718.4,187.8h1.9l-5,5l5,5h-1.9l-4.5-4.5l-0.5-0.5l0.5-0.5L718.4,187.8L718.4,187.8z M723.6,197.7l-5-5l5-5
			h-1.9l-4.5,4.5l-0.5,0.5l0.5,0.5l4.5,4.5H723.6z"/>
	</g>
</g>
<g id="elevator">
	<rect x="68.9" y="272.4" class="st5" width="29.1" height="38.8"/>
	<g>
		<g>
			<path class="st9" d="M81.3,293.4h0.1v2.9c0,0,0,0.4,0.4,0.4s0.4-0.3,0.4-0.3v-3h1.1l-1.2-3.7h0.2l0.7,2.2c0,0,0.1,0.2,0.4,0.1
				c0.3-0.1,0.2-0.3,0.2-0.3s-0.7-2.2-0.7-2.4c-0.1-0.2-0.4-0.7-0.8-0.7h-0.7"/>
			<path class="st9" d="M82.1,287.7c0,0.4-0.4,0.8-0.8,0.8c-0.4,0-0.8-0.4-0.8-0.8c0-0.4,0.4-0.8,0.8-0.8
				C81.7,286.9,82.1,287.3,82.1,287.7"/>
			<path class="st9" d="M81.4,293.4h-0.1v2.9c0,0,0,0.4-0.4,0.4c-0.3,0-0.4-0.3-0.4-0.3v-3h-1.1l1.2-3.7h-0.2l-0.7,2.2
				c0,0-0.1,0.2-0.4,0.1c-0.3-0.1-0.2-0.3-0.2-0.3s0.7-2.2,0.7-2.4c0.1-0.2,0.4-0.7,0.8-0.7h0.7"/>
		</g>
		<g>
			<path class="st9" d="M86.1,288.7h1.1c0.6,0,0.9,0.6,0.9,0.8v2.8c0,0-0.1,0.3-0.3,0.3c-0.3,0-0.3-0.3-0.3-0.3v-2.3h-0.2v3.4l0,3
				c0,0,0,0.3-0.4,0.3c-0.4,0-0.5-0.4-0.5-0.4l0-3.7h-0.1"/>
			<path class="st9" d="M86.9,287.7c0,0.4-0.4,0.8-0.8,0.8c-0.4,0-0.8-0.4-0.8-0.8c0-0.4,0.4-0.8,0.8-0.8
				C86.6,286.9,86.9,287.3,86.9,287.7"/>
			<path class="st9" d="M86.4,288.7h-1.1c-0.6,0-0.9,0.6-0.9,0.8v2.8c0,0,0.1,0.3,0.3,0.3c0.3,0,0.3-0.3,0.3-0.3v-2.3h0.2v3.4l0,3
				c0,0,0,0.3,0.4,0.3c0.4,0,0.5-0.4,0.5-0.4l0-3.7h0.1"/>
		</g>
		<path class="st9" d="M75,299c-0.5,0-1-0.5-1-1.1l0,0l0-13c0-0.6,0.4-1.1,1-1.1l0,0h17.7c0.5,0,1,0.5,1,1.1l0,0v13h0
			c0,0.6-0.4,1.1-1,1.1l0,0L75,299L75,299z M92.7,298V285H75V298H92.7L92.7,298z"/>
		<polyline class="st9" points="78,283.4 83.9,277.5 89.7,283.4 		"/>
		<polyline class="st9" points="89.7,299.6 83.9,305.4 78,299.6 		"/>
	</g>
</g>
<g id="elevator_1_">
	<rect x="520" y="110.3" class="st5" width="39.3" height="17.3"/>
	<g>
		<g>
			<path class="st9" d="M538.5,120.2L538.5,120.2l0.1,2.3c0,0,0,0.3,0.3,0.3c0.3,0,0.3-0.2,0.3-0.2v-2.3h0.8l-0.9-2.9h0.1l0.6,1.7
				c0,0,0.1,0.2,0.3,0.1c0.2-0.1,0.1-0.3,0.1-0.3s-0.5-1.7-0.6-1.9c-0.1-0.2-0.3-0.5-0.6-0.5h-0.5"/>
			<path class="st9" d="M539.1,115.7c0,0.3-0.3,0.6-0.6,0.6c-0.3,0-0.6-0.3-0.6-0.6c0-0.3,0.3-0.6,0.6-0.6
				C538.8,115.1,539.1,115.4,539.1,115.7"/>
			<path class="st9" d="M538.5,120.2L538.5,120.2l-0.1,2.3c0,0,0,0.3-0.3,0.3s-0.3-0.2-0.3-0.2v-2.3H537l0.9-2.9h-0.1l-0.6,1.7
				c0,0-0.1,0.2-0.3,0.1c-0.2-0.1-0.1-0.3-0.1-0.3s0.5-1.7,0.6-1.9c0.1-0.2,0.3-0.5,0.6-0.5h0.5"/>
		</g>
		<g>
			<path class="st9" d="M542.2,116.5h0.8c0.5,0,0.7,0.5,0.7,0.6v2.2c0,0-0.1,0.2-0.3,0.2c-0.2,0-0.2-0.2-0.2-0.2v-1.8h-0.2v2.7
				l0,2.3c0,0,0,0.2-0.3,0.2c-0.3,0-0.4-0.3-0.4-0.3l0-2.9h-0.1"/>
			<path class="st9" d="M542.8,115.7c0,0.3-0.3,0.6-0.6,0.6c-0.3,0-0.6-0.3-0.6-0.6c0-0.3,0.3-0.6,0.6-0.6
				C542.6,115.1,542.8,115.4,542.8,115.7"/>
			<path class="st9" d="M542.4,116.5h-0.8c-0.5,0-0.7,0.5-0.7,0.6v2.2c0,0,0.1,0.2,0.3,0.2c0.2,0,0.2-0.2,0.2-0.2v-1.8h0.2v2.7
				l0,2.3c0,0,0,0.2,0.3,0.2s0.4-0.3,0.4-0.3l0-2.9h0.1"/>
		</g>
		<g>
			<path class="st9" d="M531.5,123.4c-0.5,0-1-0.3-1-0.6l0,0l0-7.9c0-0.4,0.4-0.6,1-0.6l0,0h17.7c0.5,0,1,0.3,1,0.6l0,0v7.9h0
				c0,0.4-0.4,0.6-1,0.6l0,0L531.5,123.4L531.5,123.4z M549.2,122.7v-7.9h-17.7v7.9H549.2L549.2,122.7z"/>
			<polyline class="st9" points="534.5,113.9 540.3,110.3 546.2,113.9 			"/>
			<polyline class="st9" points="546.2,123.7 540.3,127.3 534.5,123.7 			"/>
		</g>
	</g>
</g>
<g id="bathroom_1_">
	<rect x="520" y="130" class="st5" width="39.3" height="55"/>
	<g>
		<path class="st9" d="M522.3,157.5L522.3,157.5c0-8.9,7.2-16.1,16.1-16.1l2.7,0c8.9,0,16.1,7.2,16.1,16.1v0
			c0,8.9-7.2,16.1-16.1,16.1h-2.7C529.5,173.6,522.3,166.4,522.3,157.5z"/>
		<g>
			<g>
				<g>
					<rect x="539.2" y="145.6" class="st5" width="2.1" height="22.6"/>
					<path class="st5" d="M540.3,156.9"/>
				</g>
				<g>
					<g>
						<circle class="st5" cx="532.5" cy="147.3" r="1.9"/>
						<path class="st5" d="M532.5,147.3"/>
					</g>
					<g>
						<path class="st5" d="M532.2,160.9l0,6.5c0,1.2-1.8,1.2-1.8,0l0-6.5h-2.3l2.5-8.6h-0.4l-1.5,4.9c-0.3,1.1-1.8,0.6-1.5-0.5
							l1.6-5.4c0.2-0.6,0.9-1.7,2.3-1.7h1.2l0,0h1.3c1.3,0,2.1,1.1,2.3,1.7l1.6,5.3c0.3,1.2-1.1,1.6-1.5,0.5l-1.5-4.9l-0.4,0
							l2.5,8.6h-2.3v6.5c0,1.2-1.7,1.2-1.7,0v-6.5H532.2z"/>
					</g>
				</g>
				<g>
					<g>
						<path class="st5" d="M545.8,149.6c-1.3,0-2.4,1.1-2.4,2.4v5.8c0,1.1,1.6,1.1,1.6,0v-5.3h0.4v14.6c0,1.5,2.1,1.5,2.1,0v-8.5
							h0.4v8.5c0,1.5,2.2,1.5,2.2,0v-14.6h0.4v5.3c0,1.1,1.6,1.1,1.6,0v-5.7c0-1.2-1-2.5-2.4-2.5L545.8,149.6z"/>
					</g>
					<g>
						<circle class="st5" cx="547.7" cy="147.3" r="1.9"/>
						<path class="st5" d="M547.7,147.3"/>
					</g>
				</g>
			</g>
		</g>
	</g>
</g>
<g id="bathroom">
	<rect x="102.2" y="385.7" class="st5" width="20.6" height="37.3"/>
	<g id="toilet_1_">
		<path class="st9" d="M102.5,403.5L102.5,403.5c0-4.9,4-8.9,8.9-8.9h1.5c4.9,0,8.9,4,8.9,8.9l0,0c0,4.9-4,8.9-8.9,8.9h-1.5
			C106.5,412.4,102.5,408.4,102.5,403.5z"/>
		<g>
			<g>
				<g>
					<rect x="111.9" y="396.9" class="st5" width="1.2" height="12.6"/>
					<path class="st5" d="M112.5,403.1"/>
				</g>
				<g>
					<g>
						<circle class="st5" cx="108.2" cy="397.8" r="1"/>
						<path class="st5" d="M108.2,397.8"/>
					</g>
					<g>
						<path class="st5" d="M108.1,405.4l0,3.6c0,0.7-1,0.7-1,0l0-3.6l-1.3,0l1.4-4.8H107l-0.8,2.7c-0.2,0.6-1,0.4-0.8-0.3l0.9-3
							c0.1-0.3,0.5-0.9,1.3-0.9h0.7l0,0h0.7c0.7,0,1.2,0.6,1.3,0.9l0.9,3c0.2,0.6-0.6,0.9-0.8,0.3l-0.8-2.7h-0.2l1.4,4.8h-1.3v3.6
							c0,0.6-1,0.6-1,0v-3.6H108.1z"/>
					</g>
				</g>
				<g>
					<g>
						<path class="st5" d="M115.6,399.1c-0.7,0-1.3,0.6-1.3,1.4v3.2c0,0.6,0.9,0.6,0.9,0v-2.9h0.2v8.1c0,0.8,1.2,0.8,1.2,0v-4.8h0.2
							v4.8c0,0.8,1.2,0.8,1.2,0l0-8.1h0.2v2.9c0,0.6,0.9,0.6,0.9,0v-3.2c0-0.7-0.5-1.4-1.3-1.4L115.6,399.1z"/>
					</g>
					<g>
						<circle class="st5" cx="116.7" cy="397.8" r="1"/>
						<path class="st5" d="M116.7,397.8"/>
					</g>
				</g>
			</g>
		</g>
	</g>
</g>
<text id="_x31_114" transform="matrix(1 0 0 1 40.2508 453.7163)" class="st10 st11 st12">1114</text>
<text id="_x31_116" transform="matrix(1 0 0 1 96.7494 453.7158)" class="st10 st11 st12">1116</text>
<text id="Reception" transform="matrix(1 0 0 1 74.0567 364.5)" class="st10 st11 st12">RECEPTION</text>
<text id="_x31_117" transform="matrix(1 0 0 1 139.5567 353.3033)" class="st10 st11 st12">1117</text>
<text id="_x31_120" transform="matrix(1 0 0 1 198.9018 393.5623)" class="st10 st11 st12">1120</text>
<text id="_x31_126" transform="matrix(1 0 0 1 253.3746 352.3031)" class="st10 st11 st12">1126</text>
<text transform="matrix(1 0 0 1 24.5 57.4008)" class="st10 st11 st12">1213</text>
<text transform="matrix(1 0 0 1 69.75 60.4008)" class="st10 st11 st12">1212</text>
<text transform="matrix(1 0 0 1 69.75 93.9008)" class="st10 st11 st12">1210</text>
<text transform="matrix(1 0 0 1 88.1245 126.8017)" class="st10 st11 st12">1208</text>
<text transform="matrix(1 0 0 1 71.0585 167.6666)" class="st10 st11 st12">1206</text>
<text transform="matrix(1 0 0 1 101.1666 167.6667)" class="st10 st11 st12">1215</text>
<text transform="matrix(1 0 0 1 149.7081 167.9297)" class="st10 st11 st12">1217</text>
<text transform="matrix(1 0 0 1 356.0414 85.7756)" class="st10 st11 st12">1233</text>
<text transform="matrix(1 0 0 1 356.0413 161.9382)" class="st10 st11 st12">1234</text>
<text transform="matrix(1 0 0 1 403.0002 180.8159)" class="st10 st11 st12">1235</text>
<text transform="matrix(1 0 0 1 403.0002 115.1353)" class="st10 st11 st12">1239</text>
<text transform="matrix(1 0 0 1 409.6669 58.4008)" class="st10 st11 st12">1241</text>
<text transform="matrix(1 0 0 1 448.4999 58.4007)" class="st10 st11 st12">1243</text>
<text transform="matrix(1 0 0 1 477.631 71.9227)" class="st10 st11 st12">1245</text>
<text transform="matrix(1 0 0 1 601.631 113.0257)" class="st10 st11 st12">1310</text>
<text transform="matrix(1 0 0 1 504.2612 259.8155)" class="st10 st11 st12">CRANE BAY</text>
<text transform="matrix(1 0 0 1 168.2505 261)" class="st10 st11 st12">CRANE BAY</text>
<text transform="matrix(1 0 0 1 549.7083 354)" class="st10 st11 st12">1141</text>
<text transform="matrix(1 0 0 1 477.6313 422.2292)" class="st10 st11 st12">1137</text>
<text transform="matrix(1 0 0 1 659.6313 421.2289)" class="st10 st11 st12">1140</text>
<text transform="matrix(1 0 0 1 359.2979 398.5622)" class="st10 st11 st12">1132</text>
<text transform="matrix(1 0 0 1 359.2981 462.2289)" class="st10 st11 st12">1131</text>
<text transform="matrix(1 0 0 1 359.298 326.1296)" class="st10 st11 st12">1135</text>
<text transform="matrix(1 0 0 1 697.3101 67.9007)" class="st10 st11 st12">1311</text>
<text transform="matrix(1 0 0 1 450.6667 94.7499)" class="st10 st11 st12">1240</text>
<text transform="matrix(1 0 0 1 450.6665 122.7373)" class="st10 st11 st12">1238</text>
<text transform="matrix(1 0 0 1 221.3747 169.203)" class="st10 st11 st12">1225</text>
<text transform="matrix(1 0 0 1 255.3747 76.2388)" class="st10 st11 st12">1229</text>
<text transform="matrix(1 0 0 1 170.7081 98.203)" class="st10 st11 st12">1220</text>
<text id="_x31_211" transform="matrix(1 0 0 1 24.5002 85.7756)" class="st10 st11 st12">1211</text>
<text id="_x31_207" transform="matrix(1 0 0 1 24.5002 138.7756)" class="st10 st11 st12">1207</text>
<text id="_x31_201" transform="matrix(1 0 0 1 24.5002 165.2756)" class="st10 st11 st12">1205</text>
<text id="_x31_203" transform="matrix(1 0 0 1 24.5002 192.7756)" class="st10 st11 st12">1203</text>
<text id="_x31_203_1_" transform="matrix(1 0 0 1 24.5004 220.5497)" class="st10 st11 st12">1201</text>
<text id="_x31_104" transform="matrix(1 0 0 1 24.5003 329.2163)" class="st10 st11 st12">1104</text>
<text id="_x31_106" transform="matrix(1 0 0 1 24.5002 356.2163)" class="st10 st11 st12">1106</text>
<text id="_x31_108" transform="matrix(1 0 0 1 24.5006 381.7163)" class="st10 st11 st12">1108</text>
<text id="_x31_110" transform="matrix(1 0 0 1 24.5008 407.4663)" class="st10 st11 st12">1110</text>
<text id="_x31_102" transform="matrix(1 0 0 1 21.6671 301.5497)" class="st10 st11 st12">1102</text>
</svg>
