<?xml version="1.0" encoding="utf-8"?>
<!-- Generator: Adobe Illustrator 21.0.2, SVG Export Plug-In . SVG Version: 6.00 Build 0)  -->
<svg version="1.1" id="Layer_1" xmlns="http://www.w3.org/2000/svg" xmlns:xlink="http://www.w3.org/1999/xlink" x="0px" y="0px"
	 viewBox="0 0 789 528" style="enable-background:new 0 0 789 528;" xml:space="preserve">
<style type="text/css">
	.st0{fill:#EDEDED;}
	.st1{fill:#E99723;}
	.st2{fill:#40A4E2;}
	.st3{fill:#5CEAC8;}
	.st3s{fill:#9BCBDD;}
	.st5{fill:#AFAFAF;}
	.st6{fill:#474747;stroke:#474748;stroke-miterlimit:10;}
	.st10{fill:#FFFFFF;}
	.st11{font-family:'MyriadPro-Regular';}
	.st12{font-size:9px;}
	.st9{fill:#474747;}
	.st7{fill:#CECECE;}
</style>
<g id="building_1_">
	<polygon class="st0" points="8.1,37.9 786.9,39.9 760.1,103.5 739.3,103.5 739.3,110.2 742.5,110.2 742.5,115.8 711.6,188 
		711.6,192.8 725,192.8 723.7,480.2 8.1,482.7 	"/>
	<polygon id="building" class="st0" points="783.9,41.9 758.7,101.5 737.3,101.5 737.3,112.2 740.5,112.2 740.5,115.4 709.6,187.6 
		709.6,194.8 723,194.8 721.7,478.2 10.1,480.7 10.1,39.9 	"/>
</g>
<rect id="room_x5F_B205" x="15.4" y="202.8" class="st1" width="39" height="15.6"/>
<rect id="room_x5F_B203" x="15.4" y="221.2" class="st1" width="39" height="42.8"/>
<rect id="room_x5F_B107" x="69.9" y="318" class="st1" width="50.4" height="77"/>
<rect id="room_x5F_B106" x="15.4" y="267" class="st1" width="39" height="148.3"/>
<rect id="room_x5F_B122" x="15.4" y="418.3" class="st1" width="51" height="55.3"/>
<rect id="room_x5F_B114" x="69.3" y="412" class="st1" width="42.2" height="61.7"/>
<rect id="room_x5F_B118" x="166.2" y="412" class="st1" width="61.7" height="61.7"/>
<rect id="room_x5F_B124" x="230.8" y="412" class="st1" width="61.7" height="61.7"/>
<rect id="room_x5F_B213" x="15.4" y="104.7" class="st1" width="39" height="19.3"/>
<rect id="room_x5F_B220" x="131.3" y="122.8" class="st1" width="40.6" height="42.4"/>
<rect id="room_x5F_B211" x="15.4" y="127" class="st1" width="39" height="20"/>
<rect id="room_x5F_B231" x="310.8" y="122.8" class="st1" width="23.1" height="21.9"/>
<rect id="room_x5F_B150" x="635.5" y="322.5" class="st1" width="26.4" height="70.7"/>
<rect id="room_x5F_B134" x="514.5" y="326.1" class="st1" width="25.3" height="27.2"/>
<rect id="room_x5F_B140_1_" x="313" y="326" class="st1" width="48.1" height="27.2"/>
<polygon id="room_x5F_B156" class="st1" points="675.3,351.6 675.3,332.3 664.9,332.3 664.9,351.6 664.9,393.3 718.5,393.3 
	718.5,351.6 "/>
<rect id="room_x5F_B233" x="310.8" y="147.7" class="st1" width="23.1" height="19.3"/>
<rect id="room_x5F_B235" x="310.8" y="170" class="st1" width="23.1" height="19.3"/>
<polygon id="room_x5F_B116" class="st1" points="137.6,412 134.8,412 124.8,412 124.8,432.5 134.8,432.5 134.8,473.7 163.2,473.7 
	163.2,412 "/>
<rect id="room_x5F_B207" x="15.4" y="150" class="st1" width="39" height="49.8"/>
<polygon id="room_x5F_B119" class="st2" points="233.8,333.3 233.8,263.7 233.8,205.9 222.5,205.9 215.6,205.9 182.4,205.9 
	182.4,263.7 182.4,394.8 227.8,394.8 227.8,363.5 248.8,363.5 248.8,333.3 "/>
<rect id="room_x5F_B217" x="69.8" y="43.3" class="st2" width="89" height="57.9"/>
<rect id="room_x5F_B243" x="445.6" y="124.7" class="st2" width="55.5" height="39.7"/>
<rect id="room_x5F_B240" x="396.8" y="145.5" class="st2" width="30.3" height="47.4"/>
<rect id="room_x5F_B153" x="635.5" y="204.1" class="st2" width="83" height="48.3"/>
<rect id="room_x5F_B151" x="635.5" y="255.3" class="st2" width="83" height="51.7"/>
<rect id="room_x5F_B142" x="542.8" y="325.9" class="st2" width="71.4" height="27.4"/>
<polygon id="room_x5F_B236" class="st2" points="393.8,122.7 337,122.7 337,192.8 393.8,192.8 393.8,143 427,143 427,122.7 "/>
<rect id="room_x5F_B221" x="161.8" y="43.3" class="st2" width="43.3" height="57.9"/>
<rect id="room_x5F_B223" x="208.1" y="43.1" class="st2" width="20" height="44"/>
<rect id="room_x5F_B226" x="236.8" y="122.8" class="st3" width="50.3" height="137.6"/>
<polygon id="room_x5F_B227" class="st2" points="288.7,43.3 288.7,80.6 335,80.6 335,101.3 442.6,101.3 442.6,80.6 442.6,43.3 "/>
<polygon id="room_x5F_B241" class="st2" points="445.6,43.3 445.6,102 454.8,102 454.8,121.7 501.2,121.7 501.2,102 501.2,43.3 "/>
<polygon id="room_x5F_B218" class="st3" points="128.3,122.8 117.2,122.8 112,122.8 69.8,122.8 69.8,201.3 150.8,201.3 150.8,171 
	150.8,168.2 128.3,168.2 "/>
<polygon id="room_x5F_B222" class="st2" points="193.8,122.8 190.8,122.8 174.9,122.8 174.9,165.2 174.9,168.2 153.8,168.2 
	153.8,171.8 153.8,174.8 153.8,201.3 233.8,201.3 233.8,122.8 "/>
<polygon id="room_x5F_B225" class="st2" points="231.1,43.3 231.1,101.3 271,101.3 271,80.6 285.7,80.6 285.7,43.3 271,43.3 "/>
<rect id="Maintenance_1_" x="295.7" y="412" class="st3s" width="38.3" height="61.7"/>
<rect id="Maintenance_2_" x="313" y="357.9" class="st3s" width="21" height="37.2"/>
<polygon id="Maintenance_4_" class="st3s" points="273.4,350.4 273.4,366.6 230.8,366.6 230.8,394.8 273.4,394.8 276.4,394.8 
	287,394.8 287,350.4 "/>
<rect id="Maintenance_3_" x="125.3" y="205.9" class="st3s" width="53.1" height="189.2"/>
<rect id="B100" x="313" y="204.1" class="st3s" width="299" height="105.4"/>
<polygon id="B130" class="st3s" points="614.3,397.3 614.3,357.9 339.7,357.9 339.7,473.7 537.7,473.7 614.3,473.7 718.5,473.7 
	718.5,397.3 "/>
<polygon id="Maintenance" class="st3s" points="66.8,43.3 15.4,43.3 15.4,71.3 15.4,90.6 15.4,101.7 50.8,101.7 50.8,90.6 66.8,90.6 
	"/>
<g id="stairs_5_">
	<rect x="678.5" y="309.5" class="st5" width="40" height="39.4"/>
	<g>
		<rect x="680.9" y="340.7" class="st6" width="7.9" height="1.7"/>
		
			<rect x="684.6" y="338.2" transform="matrix(6.123234e-17 -1 1 6.123234e-17 348.9229 1027.0049)" class="st6" width="6.7" height="1.7"/>
		<rect x="687.1" y="335.3" class="st6" width="7.9" height="1.7"/>
		
			<rect x="690.8" y="332.8" transform="matrix(6.123234e-17 -1 1 6.123234e-17 360.579 1027.8101)" class="st6" width="6.7" height="1.7"/>
		<rect x="693.4" y="329.9" class="st6" width="7.9" height="1.7"/>
		
			<rect x="697.1" y="327.4" transform="matrix(6.123234e-17 -1 1 6.123234e-17 372.235 1028.6152)" class="st6" width="6.7" height="1.7"/>
		<rect x="699.6" y="324.5" class="st6" width="7.9" height="1.7"/>
		
			<rect x="703.3" y="321.9" transform="matrix(6.123234e-17 -1 1 6.123234e-17 383.8911 1029.4203)" class="st6" width="6.7" height="1.7"/>
		<rect x="705.8" y="319" class="st6" width="7.9" height="1.7"/>
	</g>
</g>
<g id="stairs">
	<rect x="449.5" y="331.6" class="st5" width="48.3" height="21.7"/>
	<g>
		<rect x="461.2" y="350.4" class="st6" width="6.3" height="1.3"/>
		
			<rect x="464.1" y="348.4" transform="matrix(6.123234e-17 -1 1 6.123234e-17 117.6918 815.864)" class="st6" width="5.4" height="1.3"/>
		<rect x="466.1" y="346.1" class="st6" width="6.3" height="1.3"/>
		
			<rect x="469.1" y="344.1" transform="matrix(6.123234e-17 -1 1 6.123234e-17 126.964 816.5045)" class="st6" width="5.4" height="1.3"/>
		<rect x="471.1" y="341.8" class="st6" width="6.3" height="1.3"/>
		
			<rect x="474" y="339.8" transform="matrix(6.123234e-17 -1 1 6.123234e-17 136.2361 817.1449)" class="st6" width="5.4" height="1.3"/>
		<rect x="476" y="337.5" class="st6" width="6.3" height="1.3"/>
		
			<rect x="479" y="335.5" transform="matrix(6.123234e-17 -1 1 6.123234e-17 145.5083 817.7854)" class="st6" width="5.4" height="1.3"/>
		<rect x="481" y="333.2" class="st6" width="6.3" height="1.3"/>
	</g>
</g>
<g id="stairs_2_">
	<rect x="449.5" y="166.3" class="st5" width="51.8" height="21.7"/>
	<g>
		<rect x="462.8" y="185.1" class="st6" width="6.3" height="1.3"/>
		
			<rect x="465.7" y="183.1" transform="matrix(6.123234e-17 -1 1 6.123234e-17 284.587 652.1656)" class="st6" width="5.4" height="1.3"/>
		<rect x="467.7" y="180.8" class="st6" width="6.3" height="1.3"/>
		
			<rect x="470.7" y="178.8" transform="matrix(6.123234e-17 -1 1 6.123234e-17 293.8591 652.8062)" class="st6" width="5.4" height="1.3"/>
		<rect x="472.7" y="176.5" class="st6" width="6.3" height="1.3"/>
		
			<rect x="475.6" y="174.5" transform="matrix(6.123234e-17 -1 1 6.123234e-17 303.1313 653.4466)" class="st6" width="5.4" height="1.3"/>
		<rect x="477.6" y="172.2" class="st6" width="6.3" height="1.3"/>
		
			<rect x="480.6" y="170.2" transform="matrix(6.123234e-17 -1 1 6.123234e-17 312.4035 654.0871)" class="st6" width="5.4" height="1.3"/>
		<rect x="482.6" y="167.9" class="st6" width="6.3" height="1.3"/>
	</g>
</g>
<g id="stairs_6_">
	<rect x="113.4" y="434.2" class="st5" width="20.1" height="25.6"/>
	<g>
		<rect x="114.3" y="453.6" class="st6" width="4.1" height="1"/>
		
			<rect x="115.9" y="452.1" transform="matrix(6.123234e-17 -1 1 6.123234e-17 -334.6402 570.5089)" class="st6" width="4" height="0.9"/>
		<rect x="117.5" y="450.3" class="st6" width="4.1" height="1"/>
		
			<rect x="119.2" y="448.9" transform="matrix(6.123234e-17 -1 1 6.123234e-17 -328.1398 570.4926)" class="st6" width="4" height="0.9"/>
		<rect x="120.7" y="447.1" class="st6" width="4.1" height="1"/>
		
			<rect x="122.4" y="445.6" transform="matrix(6.123234e-17 -1 1 6.123234e-17 -321.6395 570.4764)" class="st6" width="4" height="0.9"/>
		<rect x="124" y="443.8" class="st6" width="4.1" height="1"/>
		
			<rect x="125.6" y="442.4" transform="matrix(6.123234e-17 -1 1 6.123234e-17 -315.1391 570.4601)" class="st6" width="4" height="0.9"/>
		<rect x="127.2" y="440.6" class="st6" width="4.1" height="1"/>
	</g>
</g>
<text transform="matrix(1 0 0 1 25.5 117.7758)" class="st10 st11 st12">B213</text>
<text transform="matrix(1 0 0 1 93.1276 166.9999)" class="st10 st11 st12">B218</text>
<text transform="matrix(1 0 0 1 104.7943 72.484)" class="st10 st11 st12">B217</text>
<text transform="matrix(1 0 0 1 16.8332 73.8173)" class="st10 st11 st12">Maintenance</text>
<text transform="matrix(1 0 0 1 461.2502 259.9999)" class="st10 st11 st12">B110</text>
<text transform="matrix(1 0 0 1 514.4998 424.3333)" class="st10 st11 st12">B130</text>
<text transform="matrix(1 0 0 1 300.2498 440.3175)"><tspan x="0" y="0" class="st10 st11 st12">Mainte-</tspan><tspan x="0" y="10.8" class="st10 st11 st12">nance</tspan></text>
<text transform="matrix(1 0 0 1 234.7498 383.3175)" class="st10 st11 st12">Maintenance</text>
<text transform="matrix(1 0 0 1 313.8282 379.8176)" class="st10 st11 st12">B133</text>
<text transform="matrix(1 0 0 1 127.2303 303.6248)" class="st10 st11 st12">Maintenance</text>
<text transform="matrix(1 0 0 1 173.8748 72.4842)" class="st10 st11 st12">B221</text>
<text transform="matrix(1 0 0 1 209.1248 69.8175)" class="st10 st11 st12">B223</text>
<text transform="matrix(1 0 0 1 247.8332 72.276)" class="st10 st11 st12">B225</text>
<text transform="matrix(1 0 0 1 362.8332 72.2759)" class="st10 st11 st12">B227</text>
<text transform="matrix(1 0 0 1 313.4998 137.2759)" class="st10 st11 st12">B231</text>
<text transform="matrix(1 0 0 1 358.1665 157.7854)" class="st10 st11 st12">B236</text>
<text transform="matrix(1 0 0 1 402.1665 170.842)" class="st10 st11 st12">B240</text>
<text transform="matrix(1 0 0 1 463.9375 147.6669)" class="st10 st11 st12">B243</text>
<text transform="matrix(1 0 0 1 667.9375 232.1669)" class="st10 st11 st12">B243</text>
<text transform="matrix(1 0 0 1 667.9375 283.1666)" class="st10 st11 st12">B243</text>
<text transform="matrix(1 0 0 1 639.625 359.8956)" class="st10 st11 st12">B150</text>
<text transform="matrix(1 0 0 1 682.625 374.2289)" class="st10 st11 st12">B156</text>
<text transform="matrix(1 0 0 1 569.2917 343.1318)" class="st10 st11 st12">B142</text>
<text transform="matrix(1 0 0 1 517.625 343.1318)" class="st10 st11 st12">B140</text>
<text transform="matrix(1 0 0 1 327.5417 343.0318)" class="st10 st11 st12">B134</text>
<text transform="matrix(1 0 0 1 313.4997 160)" class="st10 st11 st12">B233</text>
<text transform="matrix(1 0 0 1 313.4999 182.1505)" class="st10 st11 st12">B235</text>
<text transform="matrix(1 0 0 1 463.8983 79.4842)" class="st10 st11 st12">B241</text>
<text transform="matrix(1 0 0 1 142.4609 146.9999)" class="st10 st11 st12">B220</text>
<text transform="matrix(1 0 0 1 191.1276 166.9998)" class="st10 st11 st12">B222</text>
<text transform="matrix(1 0 0 1 198.7943 304.3331)" class="st10 st11 st12">B119</text>
<text transform="matrix(1 0 0 1 252.7943 192.9172)" class="st10 st11 st12">B226</text>
<text transform="matrix(1 0 0 1 25.5 140.4424)" class="st10 st11 st12">B211</text>
<text transform="matrix(1 0 0 1 25.5 178.1091)" class="st10 st11 st12">B207</text>
<text transform="matrix(1 0 0 1 25.5 213.7758)" class="st10 st11 st12">B205</text>
<text transform="matrix(1 0 0 1 25.5 245.0258)" class="st10 st11 st12">B203</text>
<text transform="matrix(1 0 0 1 25.5 341.1665)" class="st10 st11 st12">B106</text>
<text transform="matrix(1 0 0 1 31.5 448.0785)" class="st10 st11 st12">B112</text>
<text transform="matrix(1 0 0 1 81.5579 446.0583)" class="st10 st11 st12">B114</text>
<text transform="matrix(1 0 0 1 86.1457 357.8954)" class="st10 st11 st12">B107</text>
<text transform="matrix(1 0 0 1 139.8335 444.8205)" class="st10 st11 st12">B116</text>
<text transform="matrix(1 0 0 1 187.1669 444.317)" class="st10 st11 st12">B118</text>
<text transform="matrix(1 0 0 1 252.5002 444.8201)" class="st10 st11 st12">B124</text>
<g>
	<rect x="101" y="269.6" class="st5" width="20.3" height="46.5"/>
	<g>
		<path class="st9" d="M102.2,295.7V290c0-3,2.4-5.4,5.4-5.4h7c3,0,5.4,2.4,5.4,5.4v5.7c0,3-2.4,5.4-5.4,5.4l-7,0
			C104.6,301.1,102.2,298.7,102.2,295.7z"/>
		<g>
			<g>
				<g>
					<path class="st5" d="M110.1,289.2c-0.7,0-1.2,0.6-1.2,1.2v3c0,0.6,0.8,0.6,0.8,0v-2.7h0.2l0,7.5c0,0.8,1.1,0.7,1.1,0v-4.4h0.2
						v4.4c0,0.7,1.1,0.8,1.1,0l0-7.5h0.2v2.7c0,0.6,0.8,0.6,0.8,0l0-2.9c0-0.6-0.5-1.3-1.2-1.3L110.1,289.2z"/>
				</g>
				<g>
					<circle class="st5" cx="111.1" cy="287.9" r="1"/>
					<path class="st5" d="M111.1,287.9"/>
				</g>
			</g>
		</g>
	</g>
</g>
<g>
	<rect x="364.1" y="326.1" class="st5" width="77.5" height="27.1"/>
	<g>
		<path class="st9" d="M393.8,342.6v-5.9c0-3,2.4-5.4,5.4-5.4h7.3c3,0,5.4,2.4,5.4,5.4v5.9c0,3-2.4,5.4-5.4,5.4h-7.3
			C396.3,348,393.8,345.6,393.8,342.6z"/>
		<g>
			<g>
				<g>
					<path class="st5" d="M401.9,335.9c-0.7,0-1.2,0.6-1.2,1.3v3c0,0.6,0.8,0.6,0.8,0v-2.7h0.2v7.6c0,0.8,1.1,0.8,1.1,0v-4.4h0.2
						v4.4c0,0.8,1.1,0.8,1.1,0v-7.6h0.2v2.7c0,0.6,0.8,0.6,0.8,0v-3c0-0.6-0.5-1.3-1.2-1.3L401.9,335.9z"/>
				</g>
				<g>
					<circle class="st5" cx="402.9" cy="334.7" r="1"/>
					<path class="st5" d="M402.9,334.7"/>
				</g>
			</g>
		</g>
	</g>
</g>
<g>
	<rect x="71.6" y="202.8" class="st5" width="25.4" height="46.9"/>
	<g>
		<rect x="75.8" y="231.8" class="st6" width="4.2" height="1"/>
		
			<rect x="77.6" y="230.3" transform="matrix(6.123234e-17 -1 1 6.123234e-17 -151.2157 310.3162)" class="st6" width="3.9" height="0.9"/>
		<rect x="79.1" y="228.6" class="st6" width="4.2" height="1"/>
		
			<rect x="80.9" y="227.2" transform="matrix(6.123234e-17 -1 1 6.123234e-17 -144.7561 310.4272)" class="st6" width="3.9" height="0.9"/>
		<rect x="82.4" y="225.4" class="st6" width="4.2" height="1"/>
		
			<rect x="84.2" y="224" transform="matrix(6.123234e-17 -1 1 6.123234e-17 -138.2966 310.5383)" class="st6" width="3.9" height="0.9"/>
		<rect x="85.7" y="222.2" class="st6" width="4.2" height="1"/>
		
			<rect x="87.4" y="220.8" transform="matrix(6.123234e-17 -1 1 6.123234e-17 -131.837 310.6494)" class="st6" width="3.9" height="0.9"/>
		<rect x="89" y="219.1" class="st6" width="4.2" height="1"/>
	</g>
</g>
<g>
	<rect x="71.8" y="269.6" class="st5" width="25.4" height="46.5"/>
	<g>
		<g>
			<path class="st9" d="M82.5,294.6L82.5,294.6l0.1,2.6c0,0,0,0.3,0.3,0.3c0.3,0,0.3-0.3,0.3-0.3v-2.7h1l-1-3.3h0.2l0.6,2
				c0,0,0.1,0.2,0.3,0.1c0.2-0.1,0.2-0.3,0.2-0.3s-0.6-2-0.6-2.2c-0.1-0.2-0.3-0.6-0.7-0.6h-0.6"/>
			<path class="st9" d="M83.2,289.5c0,0.4-0.3,0.7-0.7,0.7c-0.4,0-0.7-0.3-0.7-0.7c0-0.4,0.3-0.7,0.7-0.7
				C82.9,288.8,83.2,289.1,83.2,289.5"/>
			<path class="st9" d="M82.6,294.6L82.6,294.6l-0.1,2.6c0,0,0,0.3-0.3,0.3c-0.3,0-0.3-0.3-0.3-0.3v-2.7h-1l1-3.3h-0.2l-0.6,2
				c0,0-0.1,0.2-0.3,0.1c-0.2-0.1-0.2-0.3-0.2-0.3s0.6-2,0.6-2.2c0.1-0.2,0.3-0.6,0.7-0.6h0.6"/>
		</g>
		<g>
			<path class="st9" d="M86.8,290.4h1c0.5,0,0.8,0.6,0.8,0.7v2.5c0,0-0.1,0.3-0.3,0.3c-0.2,0-0.3-0.3-0.3-0.3v-2.1h-0.2v3.1l0,2.7
				c0,0,0,0.3-0.3,0.3c-0.4,0-0.4-0.3-0.4-0.3l0-3.3h-0.1"/>
			<path class="st9" d="M87.5,289.5c0,0.4-0.3,0.7-0.7,0.7c-0.4,0-0.7-0.3-0.7-0.7c0-0.4,0.3-0.7,0.7-0.7
				C87.2,288.8,87.5,289.1,87.5,289.5"/>
			<path class="st9" d="M87,290.4h-1c-0.5,0-0.8,0.6-0.8,0.7v2.5c0,0,0.1,0.3,0.3,0.3c0.2,0,0.3-0.3,0.3-0.3v-2.1H86v3.1l0,2.7
				c0,0,0,0.3,0.3,0.3c0.4,0,0.4-0.3,0.4-0.3l0-3.3h0.1"/>
		</g>
		<path class="st9" d="M76.8,299.7c-0.5,0-0.9-0.4-0.9-0.9l0,0l0-11.6c0-0.5,0.4-0.9,0.9-0.9l0,0h15.8c0.5,0,0.9,0.4,0.9,0.9l0,0
			v11.6h0c0,0.5-0.4,0.9-0.9,0.9l0,0L76.8,299.7L76.8,299.7z M92.7,298.7v-11.6H76.8v11.6H92.7L92.7,298.7z"/>
		<polyline class="st9" points="79.5,285.7 84.8,280.4 90,285.7 		"/>
		<polyline class="st9" points="90,300.1 84.8,305.4 79.5,300.1 		"/>
	</g>
</g>
<g>
	<rect x="100.8" y="202.8" class="st5" width="20.8" height="46.9"/>
	<path class="st9" d="M101.8,228.5l0-5.3c0-3.3,2.7-6,6-6l6.7,0c3.3,0,6,2.7,6,6v5.3c0,3.3-2.7,6-6,6h-6.7
		C104.5,234.5,101.8,231.8,101.8,228.5z"/>
	<g>
		<g>
			<g>
				<circle class="st5" cx="111.1" cy="220.8" r="1"/>
				<path class="st5" d="M111.1,220.8"/>
			</g>
			<g>
				<path class="st5" d="M111,228.1l0,3.5c0,0.6-0.9,0.6-0.9,0l0-3.5h-1.2l1.3-4.6h-0.2l-0.8,2.6c-0.2,0.6-1,0.3-0.8-0.3l0.9-2.9
					c0.1-0.3,0.5-0.9,1.2-0.9h0.7l0,0h0.7c0.7,0,1.1,0.6,1.2,0.9l0.9,2.9c0.2,0.6-0.6,0.9-0.8,0.3l-0.8-2.6h-0.2l1.3,4.6h-1.2v3.5
					c0,0.6-0.9,0.6-0.9,0v-3.5L111,228.1z"/>
			</g>
		</g>
	</g>
</g>
<path class="st7" d="M632.5,310V204.1h-17.3v108.4H307.8V201.9H430h3h7.6h2.1h58.5V191h-58.5v-72h9.4v-14.3H329.7V85.3h-54v19.3
	h-47.5v-13h-20v13H67.3V93.6h-11v11.1v3v3.2v8.2v279v8v3v6.3h10V409h47v22.2h10V409H290h3h11.8h3h28.8v-11h-28.8v-75.1h307.4h2.4
	v70.4h14.8v-70.4v-3.5h32.4v9.9h10.6v-9.9v-3V310H632.5z M307.8,119H430v75.7H307.8V119z M290,194.7v7.3v61.4h-53.3v67h15v17.1H290
	V398H67.8V266.6h53.7v-2.8v-4.9v-6.1H67.8V119H290V194.7z"/>
</svg>
